<svg width="70" height="70" viewBox="0 0 70 70" fill="none" xmlns="http://www.w3.org/2000/svg">
<path d="M35 5.83333C18.9292 5.83333 5.83337 18.9292 5.83337 35C5.83337 51.0708 18.9292 64.1667 35 64.1667C51.0709 64.1667 64.1667 51.0708 64.1667 35C64.1667 18.9292 51.0709 5.83333 35 5.83333ZM43.1375 36.5458L32.8417 46.8417C32.4042 47.2792 31.85 47.4833 31.2959 47.4833C30.7417 47.4833 30.1875 47.2792 29.75 46.8417C29.3432 46.43 29.1151 45.8746 29.1151 45.2958C29.1151 44.7171 29.3432 44.1616 29.75 43.75L38.5 35L29.75 26.25C29.3432 25.8383 29.1151 25.2829 29.1151 24.7042C29.1151 24.1254 29.3432 23.57 29.75 23.1583C30.5959 22.3125 31.9959 22.3125 32.8417 23.1583L43.1375 33.4542C44.0125 34.3 44.0125 35.7 43.1375 36.5458Z" fill="#EEEEEE"/>
</svg>
