<svg width="70" height="70" viewBox="0 0 70 70" fill="none" xmlns="http://www.w3.org/2000/svg">
<path d="M35 5.83333C18.9292 5.83333 5.83337 18.9292 5.83337 35C5.83337 51.0708 18.9292 64.1667 35 64.1667C51.0709 64.1667 64.1667 51.0708 64.1667 35C64.1667 18.9292 51.0709 5.83333 35 5.83333ZM46.8417 32.8708L36.5459 43.1667C36.1084 43.6042 35.5542 43.8083 35 43.8083C34.4459 43.8083 33.8917 43.6042 33.4542 43.1667L23.1584 32.8708C22.7516 32.4592 22.5234 31.9038 22.5234 31.325C22.5234 30.7462 22.7516 30.1908 23.1584 29.7792C24.0042 28.9333 25.4042 28.9333 26.25 29.7792L35 38.5292L43.75 29.7792C44.5959 28.9333 45.9959 28.9333 46.8417 29.7792C47.6875 30.625 47.6875 31.9958 46.8417 32.8708Z" fill="white"/>
</svg>
