<svg width="70" height="70" viewBox="0 0 70 70" fill="none" xmlns="http://www.w3.org/2000/svg">
<path d="M52.4416 31.4708V43.1375C52.4416 43.8958 52.4125 44.625 52.325 45.325C51.6541 53.2 47.0166 57.1083 38.4708 57.1083H37.3041C36.575 57.1083 35.875 57.4583 35.4375 58.0417L31.9375 62.7083C30.3916 64.7792 27.8833 64.7792 26.3375 62.7083L22.8375 58.0417C22.604 57.7698 22.3187 57.5472 21.9982 57.387C21.6776 57.2267 21.3284 57.132 20.9708 57.1083H19.8041C10.5 57.1083 5.83331 54.8042 5.83331 43.1375V31.4708C5.83331 22.925 9.77081 18.2875 17.6166 17.6167C18.3166 17.5292 19.0458 17.5 19.8041 17.5H38.4708C47.775 17.5 52.4416 22.1667 52.4416 31.4708Z" stroke="white" stroke-width="5" stroke-miterlimit="10" stroke-linecap="round" stroke-linejoin="round"/>
<path d="M64.1083 19.8042V31.4708C64.1083 40.0458 60.1708 44.6542 52.325 45.325C52.4125 44.625 52.4416 43.8958 52.4416 43.1375V31.4708C52.4416 22.1667 47.775 17.5 38.4708 17.5H19.8041C19.0458 17.5 18.3166 17.5292 17.6166 17.6167C18.2875 9.77083 22.925 5.83333 31.4708 5.83333H50.1375C59.4416 5.83333 64.1083 10.5 64.1083 19.8042Z" stroke="white" stroke-width="3.5" stroke-miterlimit="10" stroke-linecap="round" stroke-linejoin="round"/>
<path d="M39.3604 38.6458H39.3896M29.1521 38.6458H29.1812M18.9437 38.6458H18.9729" stroke="white" stroke-width="2" stroke-linecap="round" stroke-linejoin="round"/>
</svg>
