<svg xmlns="http://www.w3.org/2000/svg" xmlns:xlink="http://www.w3.org/1999/xlink" version="1.1" x="0px" y="0px" viewBox="0 0 504 589.1175" style="enable-background:new 0 0 504 471.294;" xml:space="preserve"><path d="M503.279,233.669l-36.905,52.844c-0.752,1.077-1.98,1.71-3.279,1.71c-0.123,0-0.247-0.006-0.371-0.018  c-1.433-0.133-2.683-1.025-3.275-2.337l-26.526-58.761c-0.909-2.014-0.013-4.383,2-5.291c2.014-0.909,4.383-0.013,5.291,2  l21.104,46.75c1.771-11.507,2.681-23.212,2.681-34.919C464,110.122,361.72,8,236,8S8,110.122,8,235.647  c0,125.524,102.28,227.646,228,227.646c86.509,0,164.521-47.918,203.59-125.054c0.999-1.972,3.405-2.761,5.376-1.761  c1.971,0.998,2.759,3.405,1.761,5.376c-19.406,38.313-48.943,70.649-85.418,93.514c-37.494,23.502-80.825,35.925-125.308,35.925  c-63.037,0-122.301-24.511-166.875-69.018C24.549,357.769,0,298.592,0,235.647c0-62.945,24.549-122.122,69.125-166.63  C113.699,24.511,172.963,0,236,0s122.301,24.511,166.875,69.018C447.451,113.525,472,172.702,472,235.647  c0,10.695-0.739,21.39-2.171,31.946l26.891-38.505c1.266-1.813,3.76-2.253,5.569-0.989  C504.102,229.364,504.544,231.858,503.279,233.669z M403.667,236c0,92.636-75.364,168-168,168s-168-75.364-168-168  s75.364-168,168-168S403.667,143.364,403.667,236z M395.667,236c0-88.225-71.776-160-160-160s-160,71.775-160,160  s71.776,160,160,160S395.667,324.225,395.667,236z M291.862,298.957c0.36,1.336,0.005,2.764-0.939,3.774l-52.333,56  c-0.756,0.81-1.815,1.269-2.922,1.269c-0.004,0-0.008,0-0.013,0c-1.112-0.004-2.173-0.47-2.927-1.288l-51.667-56  c-0.927-1.005-1.277-2.414-0.927-3.735l33.936-128.155c-8.634-6.938-13.602-17.257-13.602-25.372v-11.633  c0-5.413,4.594-9.816,10.24-9.816h49.92c5.646,0,10.24,4.403,10.24,9.816v11.633c0,8.114-4.968,18.431-13.599,25.37L291.862,298.957  z M235.667,170.53c16.873,0,27.2-16.238,27.2-25.081v-11.633c0-0.984-1.026-1.816-2.24-1.816h-49.92c-1.214,0-2.24,0.832-2.24,1.816  v11.633C208.467,154.292,218.793,170.53,235.667,170.53z M283.558,298.895l-33.373-123.616c-4.296,2.034-9.166,3.251-14.518,3.251  c-5.347,0-10.211-1.215-14.504-3.245l-32.734,123.616l47.257,51.22L283.558,298.895z"/></svg>