<?xml version="1.0" encoding="UTF-8" standalone="no"?> <svg width="64" height="64" viewBox="0 0 64 64" fill="none" xmlns="http://www.w3.org/2000/svg">
<path d="M56.984 22.485C56.385 22.0791 55.6623 21.8967 54.9424 21.9699C54.2225 22.043 53.5512 22.3669 53.046 22.885L51 24.931C50.4915 24.4422 49.8304 24.1432 49.1276 24.084C48.4248 24.0248 47.723 24.2091 47.14 24.606C46.7849 24.859 46.4892 25.1864 46.2735 25.5654C46.0578 25.9444 45.9274 26.3658 45.8912 26.8004C45.855 27.2349 45.914 27.6721 46.0641 28.0815C46.2141 28.4909 46.4516 28.8627 46.76 29.171L48.881 31.293C49.4436 31.8554 50.2065 32.1714 51.002 32.1714C51.7975 32.1714 52.5604 31.8554 53.123 31.293L57.366 27.05C57.6744 26.7417 57.9119 26.3699 58.0619 25.9605C58.212 25.5511 58.271 25.1139 58.2348 24.6794C58.1986 24.2448 58.0682 23.8234 57.8525 23.4444C57.6368 23.0654 57.3411 22.738 56.986 22.485H56.984ZM55.95 25.636L51.707 29.878C51.5195 30.0655 51.2652 30.1708 51 30.1708C50.7348 30.1708 50.4805 30.0655 50.293 29.878L48.172 27.756C48.0685 27.6526 47.989 27.5278 47.9389 27.3904C47.8889 27.2529 47.8697 27.1062 47.8826 26.9605C47.8954 26.8148 47.9401 26.6737 48.0134 26.5471C48.0868 26.4205 48.187 26.3116 48.307 26.228C48.4612 26.1208 48.6452 26.0645 48.833 26.067C49.1443 26.0712 49.4415 26.1972 49.661 26.418L50.293 27.05C50.4805 27.2375 50.7348 27.3428 51 27.3428C51.2652 27.3428 51.5195 27.2375 51.707 27.05L54.46 24.3C54.6296 24.1174 54.857 23.9989 55.1039 23.9644C55.3507 23.93 55.6019 23.9818 55.815 24.111C55.935 24.1946 56.0352 24.3035 56.1085 24.4301C56.1819 24.5567 56.2266 24.6978 56.2394 24.8435C56.2523 24.9892 56.2331 25.1359 56.1831 25.2734C56.133 25.4108 56.0535 25.5356 55.95 25.639V25.636Z" fill="black"/>
<path d="M60 52H59V34.13C59.9497 33.2012 60.7042 32.0921 61.2194 30.8677C61.7346 29.6433 61.9999 28.3283 61.9999 27C61.9999 25.6717 61.7346 24.3567 61.2194 23.1323C60.7042 21.9079 59.9497 20.7988 59 19.87V19C59 17.6739 58.4732 16.4021 57.5355 15.4645C56.5979 14.5268 55.3261 14 54 14H45.65C45.367 13.4035 44.9211 12.8991 44.3637 12.5452C43.8064 12.1913 43.1602 12.0023 42.5 12H42V10C41.9964 8.78291 41.5482 7.60908 40.7398 6.69931C39.9313 5.78955 38.8182 5.20655 37.61 5.06C37.2281 4.15282 36.5869 3.37854 35.7669 2.8342C34.9468 2.28985 33.9843 1.99967 33 2H23C22.7348 2 22.4804 2.10536 22.2929 2.29289C22.1054 2.48043 22 2.73478 22 3V5C22.0043 5.87662 22.2425 6.7362 22.69 7.49C22.2441 8.25177 22.0061 9.11733 22 10V12H21.5C20.8398 12.0023 20.1936 12.1913 19.6363 12.5452C19.0789 12.8991 18.633 13.4035 18.35 14H10C8.67392 14 7.40215 14.5268 6.46447 15.4645C5.52678 16.4021 5 17.6739 5 19V52H4C3.47005 52.0016 2.96227 52.2128 2.58753 52.5875C2.2128 52.9623 2.00158 53.4701 2 54V57C2 58.3261 2.52678 59.5979 3.46447 60.5355C4.40215 61.4732 5.67392 62 7 62H57C58.3261 62 59.5979 61.4732 60.5355 60.5355C61.4732 59.5979 62 58.3261 62 57V54C61.9984 53.4701 61.7872 52.9623 61.4125 52.5875C61.0377 52.2128 60.5299 52.0016 60 52ZM60 27C60 28.5823 59.5308 30.129 58.6518 31.4446C57.7727 32.7602 56.5233 33.7855 55.0615 34.391C53.5997 34.9965 51.9911 35.155 50.4393 34.8463C48.8874 34.5376 47.462 33.7757 46.3431 32.6569C45.2243 31.538 44.4624 30.1126 44.1537 28.5607C43.845 27.0089 44.0035 25.4003 44.609 23.9385C45.2145 22.4767 46.2398 21.2273 47.5554 20.3482C48.871 19.4692 50.4177 19 52 19C54.1208 19.0029 56.154 19.8467 57.6536 21.3464C59.1533 22.846 59.9971 24.8792 60 27V27ZM45.95 16H54C54.6727 16.0016 55.3253 16.2293 55.8531 16.6464C56.3808 17.0635 56.753 17.6459 56.91 18.3C55.5105 17.5019 53.9374 17.0575 52.3272 17.0052C50.717 16.9529 49.1183 17.2944 47.67 18H44.94C45.4909 17.465 45.8465 16.7609 45.95 16V16ZM42 14H42.5C42.8978 14 43.2794 14.158 43.5607 14.4393C43.842 14.7206 44 15.1022 44 15.5C44 15.8978 43.842 16.2794 43.5607 16.5607C43.2794 16.842 42.8978 17 42.5 17H42V14ZM41.8 20H44.87C43.4883 21.4042 42.5526 23.1855 42.1803 25.1201C41.8081 27.0546 42.016 29.0559 42.778 30.8726C43.5399 32.6893 44.8219 34.2402 46.4627 35.3304C48.1035 36.4207 50.03 37.0015 52 37C52.34 37 52.67 36.98 53 36.95V48H48V43.42C48.0077 41.0046 47.3393 38.6352 46.0705 36.5799C44.8016 34.5246 42.9828 32.8654 40.82 31.79L38.98 30.87C38.9635 30.7291 38.9165 30.5934 38.8422 30.4726C38.768 30.3517 38.6682 30.2484 38.55 30.17L36 28.46V27.16C37.4684 26.5166 38.7612 25.5307 39.7703 24.285C40.7794 23.0393 41.4754 21.5699 41.8 20V20ZM22 41V43H18.03C18.0952 41.0302 18.6919 39.1147 19.7569 37.4563C20.822 35.798 22.3158 34.4586 24.08 33.58L25.56 32.84L27.05 37.32C27.1012 37.4687 27.1867 37.6033 27.2996 37.7128C27.4126 37.8222 27.5497 37.9035 27.7 37.95C27.797 37.9812 27.8981 37.998 28 38C28.216 37.998 28.426 37.928 28.6 37.8L32 35.25L35.4 37.8C35.574 37.928 35.784 37.998 36 38C36.1019 37.998 36.203 37.9812 36.3 37.95C36.4512 37.9054 36.5893 37.8247 36.7025 37.715C36.8158 37.6053 36.9007 37.4697 36.95 37.32L38.44 32.84L39.92 33.57C41.6838 34.4518 43.1769 35.7933 44.2417 37.4531C45.3065 39.1128 45.9036 41.0292 45.97 43H42V41H40V48H24V41H22ZM22 45V48H18V45H22ZM34 28.72L32 32.06L30 28.72V27.8C31.32 28.0667 32.68 28.0667 34 27.8V28.72ZM35.32 30.41L36.81 31.41L35.49 35.37L33.32 33.74L35.32 30.41ZM30.68 33.74L28.51 35.37L27.19 31.41L28.68 30.41L30.68 33.74ZM42 45H46V48H42V45ZM38 7.18C38.5827 7.38756 39.0874 7.76964 39.4452 8.27422C39.8031 8.77881 39.9968 9.3814 40 10V10.59L38 8.59V7.18ZM24 4H33C33.7949 4.00237 34.5566 4.31921 35.1187 4.8813C35.6808 5.4434 35.9976 6.20508 36 7V8H27C26.2051 7.99763 25.4434 7.68079 24.8813 7.1187C24.3192 6.5566 24.0024 5.79492 24 5V4ZM24 10C23.9994 9.69373 24.0501 9.38952 24.15 9.1C24.56 9.37656 25.008 9.59214 25.48 9.74L24 10.92V10ZM24 13.48L28.35 10H36.59L40 13.41V18C39.9971 20.1208 39.1533 22.154 37.6536 23.6536C36.154 25.1533 34.1208 25.9971 32 26C29.8788 25.9984 27.8448 25.155 26.3449 23.6551C24.845 22.1552 24.0016 20.1212 24 18V13.48ZM22.2 20C22.5259 21.5694 23.2224 23.0381 24.2314 24.2836C25.2403 25.5292 26.5324 26.5154 28 27.16V28.46L25.45 30.17C25.3318 30.2484 25.232 30.3517 25.1578 30.4726C25.0835 30.5934 25.0365 30.7291 25.02 30.87L23.18 31.79C21.0172 32.8654 19.1984 34.5246 17.9295 36.5799C16.6607 38.6352 15.9923 41.0046 16 43.42V48H11V20H22.2ZM21.5 14H22V17H21.5C21.1022 17 20.7206 16.842 20.4393 16.5607C20.158 16.2794 20 15.8978 20 15.5C20 15.1022 20.158 14.7206 20.4393 14.4393C20.7206 14.158 21.1022 14 21.5 14V14ZM7 19C7.00237 18.2051 7.31921 17.4434 7.8813 16.8813C8.4434 16.3192 9.20508 16.0024 10 16H18.05C18.1535 16.7609 18.5091 17.465 19.06 18H10C9.73478 18 9.48043 18.1054 9.29289 18.2929C9.10536 18.4804 9 18.7348 9 19V49C9 49.2652 9.10536 49.5196 9.29289 49.7071C9.48043 49.8946 9.73478 50 10 50H54C54.2652 50 54.5196 49.8946 54.7071 49.7071C54.8946 49.5196 55 49.2652 55 49V36.54C55.6965 36.3156 56.367 36.0172 57 35.65V52H7V19ZM36 54V56H28V54H36ZM60 57C59.9976 57.7949 59.6808 58.5566 59.1187 59.1187C58.5566 59.6808 57.7949 59.9976 57 60H7C6.20508 59.9976 5.4434 59.6808 4.8813 59.1187C4.31921 58.5566 4.00237 57.7949 4 57V54H26V56C26.0016 56.5299 26.2128 57.0377 26.5875 57.4125C26.9623 57.7872 27.4701 57.9984 28 58H36C36.5299 57.9984 37.0377 57.7872 37.4125 57.4125C37.7872 57.0377 37.9984 56.5299 38 56V54H60V57Z" fill="black"/>
<path d="M36 17C37.1046 17 38 16.1046 38 15C38 13.8954 37.1046 13 36 13C34.8954 13 34 13.8954 34 15C34 16.1046 34.8954 17 36 17Z" fill="black"/>
<path d="M28 17C29.1046 17 30 16.1046 30 15C30 13.8954 29.1046 13 28 13C26.8954 13 26 13.8954 26 15C26 16.1046 26.8954 17 28 17Z" fill="black"/>
<path d="M35 19H29C28.7348 19 28.4804 19.1054 28.2929 19.2929C28.1054 19.4804 28 19.7348 28 20C28 21.0609 28.4214 22.0783 29.1716 22.8284C29.9217 23.5786 30.9391 24 32 24C33.0609 24 34.0783 23.5786 34.8284 22.8284C35.5786 22.0783 36 21.0609 36 20C36 19.7348 35.8946 19.4804 35.7071 19.2929C35.5196 19.1054 35.2652 19 35 19ZM32 22C31.6491 21.9998 31.3044 21.9073 31.0006 21.7318C30.6968 21.5563 30.4444 21.3039 30.269 21H33.731C33.5556 21.3039 33.3032 21.5563 32.9994 21.7318C32.6956 21.9073 32.3509 21.9998 32 22V22Z" fill="black"/>
<path d="M33 38H31V40H33V38Z" fill="black"/>
<path d="M33 42H31V44H33V42Z" fill="black"/>
</svg>
