<svg width="68" height="68" viewBox="0 0 76 76" fill="none" xmlns="http://www.w3.org/2000/svg">
<g filter="url(#filter0_d_2_60)">
<path d="M35.5057 54.7993C35.5057 56.18 36.625 57.2993 38.0057 57.2993C39.3864 57.2993 40.5057 56.18 40.5057 54.7993V44.4051C40.5057 43.0244 39.3864 41.9051 38.0057 41.9051C36.625 41.9051 35.5057 43.0244 35.5057 44.4051V54.7993ZM33.0256 4.1412L33.0268 4.14021C35.7047 1.95161 40.2614 1.944 42.9825 4.17308L42.9876 4.17724L66.5392 23.3664C66.5402 23.3671 66.5411 23.3679 66.5421 23.3687C67.424 24.0937 68.283 25.3526 68.8561 26.8837C69.4285 28.4127 69.6169 29.9495 69.4306 31.1176C69.4304 31.1186 69.4303 31.1197 69.4301 31.1208L64.9114 58.6838C64.9112 58.6851 64.911 58.6864 64.9108 58.6877C64.2879 62.4042 60.6429 65.5 57.0429 65.5H18.9686C15.3317 65.5 11.7234 62.436 11.1008 58.6886C11.1007 58.688 11.1006 58.6873 11.1005 58.6866L6.57991 31.1118L6.5774 31.0967C6.38003 29.9371 6.55928 28.4079 7.12983 26.8837C7.7009 25.3581 8.56512 24.1013 9.45998 23.3763L9.45999 23.3764L9.46712 23.3705L33.0256 4.1412Z" stroke="white" stroke-width="5" stroke-linecap="round" stroke-linejoin="round" shape-rendering="crispEdges"/>
</g>
<defs>
<filter id="filter0_d_2_60" x="0" y="0" width="76" height="76" filterUnits="userSpaceOnUse" color-interpolation-filters="sRGB">
<feFlood flood-opacity="0" result="BackgroundImageFix"/>
<feColorMatrix in="SourceAlpha" type="matrix" values="0 0 0 0 0 0 0 0 0 0 0 0 0 0 0 0 0 0 127 0" result="hardAlpha"/>
<feOffset dy="4"/>
<feGaussianBlur stdDeviation="2"/>
<feComposite in2="hardAlpha" operator="out"/>
<feColorMatrix type="matrix" values="0 0 0 0 0 0 0 0 0 0 0 0 0 0 0 0 0 0 0.25 0"/>
<feBlend mode="normal" in2="BackgroundImageFix" result="effect1_dropShadow_2_60"/>
<feBlend mode="normal" in="SourceGraphic" in2="effect1_dropShadow_2_60" result="shape"/>
</filter>
</defs>
</svg>
