<svg width="45" height="45" viewBox="0 0 45 45" fill="none" xmlns="http://www.w3.org/2000/svg">
<path d="M41.25 42.6562H3.75C2.98125 42.6562 2.34375 42.0187 2.34375 41.25C2.34375 40.4813 2.98125 39.8438 3.75 39.8438H41.25C42.0187 39.8438 42.6562 40.4813 42.6562 41.25C42.6562 42.0187 42.0187 42.6562 41.25 42.6562Z" fill="white"/>
<path d="M6.9375 41.2481H4.125L4.21875 18.6919C4.21875 17.0981 4.95 15.6169 6.20625 14.6419L19.3313 4.42312C21.1875 2.97937 23.7938 2.97937 25.6688 4.42312L38.7938 14.6231C40.0313 15.5981 40.7813 17.1169 40.7813 18.6919V41.2481H37.9688V18.7106C37.9688 17.9981 37.6313 17.3044 37.0688 16.8544L23.9438 6.65437C23.5302 6.33509 23.0225 6.1619 22.5 6.1619C21.9775 6.1619 21.4698 6.33509 21.0563 6.65437L7.93125 16.8731C7.36875 17.3044 7.03125 17.9981 7.03125 18.7106L6.9375 41.2481Z" fill="white"/>
<path d="M27.1875 42.6562H17.8125C17.0437 42.6562 16.4062 42.0187 16.4062 41.25V34.6875C16.4062 32.3625 18.3 30.4688 20.625 30.4688H24.375C26.7 30.4688 28.5937 32.3625 28.5937 34.6875V41.25C28.5937 42.0187 27.9562 42.6562 27.1875 42.6562ZM19.2187 39.8438H25.7812V34.6875C25.7812 33.9188 25.1437 33.2812 24.375 33.2812H20.625C19.8562 33.2812 19.2187 33.9188 19.2187 34.6875V39.8438ZM17.8125 27.1875H14.0625C12.2625 27.1875 10.7812 25.7062 10.7812 23.9062V21.0938C10.7812 19.2938 12.2625 17.8125 14.0625 17.8125H17.8125C19.6125 17.8125 21.0937 19.2938 21.0937 21.0938V23.9062C21.0937 25.7062 19.6125 27.1875 17.8125 27.1875ZM14.0625 20.625C13.8 20.625 13.5937 20.8312 13.5937 21.0938V23.9062C13.5937 24.1688 13.8 24.375 14.0625 24.375H17.8125C18.075 24.375 18.2812 24.1688 18.2812 23.9062V21.0938C18.2812 20.8312 18.075 20.625 17.8125 20.625H14.0625ZM30.9375 27.1875H27.1875C25.3875 27.1875 23.9062 25.7062 23.9062 23.9062V21.0938C23.9062 19.2938 25.3875 17.8125 27.1875 17.8125H30.9375C32.7375 17.8125 34.2187 19.2938 34.2187 21.0938V23.9062C34.2187 25.7062 32.7375 27.1875 30.9375 27.1875ZM27.1875 20.625C26.925 20.625 26.7187 20.8312 26.7187 21.0938V23.9062C26.7187 24.1688 26.925 24.375 27.1875 24.375H30.9375C31.2 24.375 31.4062 24.1688 31.4062 23.9062V21.0938C31.4062 20.8312 31.2 20.625 30.9375 20.625H27.1875ZM35.625 14.5312C34.8562 14.5312 34.2187 13.9125 34.2187 13.1438L34.1812 8.90625H27.3375C26.5687 8.90625 25.9312 8.26875 25.9312 7.5C25.9312 6.73125 26.5687 6.09375 27.3375 6.09375H35.5875C36.3562 6.09375 36.9937 6.7125 36.9937 7.48125L37.05 13.1062C37.0312 13.8937 36.4125 14.5312 35.625 14.5312Z" fill="white"/>
</svg>
