<svg xmlns="http://www.w3.org/2000/svg" xmlns:xlink="http://www.w3.org/1999/xlink" version="1.1" x="0px" y="0px" viewBox="-55 147 500 625" style="enable-background:new -55 147 500 500;" xml:space="preserve"><g><path style="fill: rgb(0; 0; 0);" d="M399,279.6L399,279.6l42.7-55.4c5.4-7,4.1-17.1-2.9-22.4l-66.7-51.5c-3.4-2.6-7.6-3.7-11.8-3.2c-4.2,0.5-8,2.7-10.6,6.1   L307,208.6l0,0l0,0l-34.3,44.5l-70.3-53.8c-5.7-4.4-13.7-4.4-19.4,0L-48.7,376.4c-4,3-6.3,7.7-6.3,12.7v25.3c0,8.8,7.2,16,16,16h28   V631c0,8.8,7.2,16,16,16h375.2c8.8,0,16-7.2,16-16V430.4h28c8.8,0,16-7.2,16-16v-25.3c0-5-2.3-9.7-6.3-12.7L365,323.7L399,279.6   L399,279.6z M322.5,240.9l41.3,31.9l-154.1,200L168.3,441L322.5,240.9z M182.8,492.5l-35,17.9l8.4-38.4L182.8,492.5z M408.1,397   v1.4h-28c-8.8,0-16,7.2-16,16v112h-25.6c-8.8,0-16,7.2-16,16c0,8.8,7.2,16,16,16h25.6V615H21V414.4c0-8.8-7.2-16-16-16h-28V397   l215.6-164.7l60.5,46.3L133.2,434.1c-0.4,0.5-0.7,0.9-1,1.4c-0.1,0.1-0.1,0.2-0.2,0.3c-0.2,0.4-0.4,0.8-0.6,1.2   c-0.1,0.1-0.1,0.3-0.2,0.4c-0.2,0.4-0.3,0.8-0.5,1.2c-0.1,0.2-0.1,0.3-0.1,0.5c-0.1,0.4-0.2,0.8-0.3,1.1c0,0.1,0,0.2-0.1,0.2   l-20.9,96.1c-1.3,6,1,12.3,5.9,16.1c2.9,2.2,6.3,3.3,9.8,3.3c2.5,0,5-0.6,7.3-1.8l87.6-44.8c0.2-0.1,0.3-0.2,0.5-0.3   c0.3-0.2,0.6-0.3,0.9-0.5c0.2-0.1,0.4-0.3,0.6-0.4c0.3-0.2,0.6-0.4,0.8-0.6c0.2-0.2,0.5-0.4,0.7-0.6s0.4-0.4,0.6-0.6   c0.4-0.4,0.8-0.9,1.2-1.4L345.4,349L408.1,397z M342,215.5l23.2-30.1l41.3,31.8l-23.2,30.1L342,215.5z"/><path style="fill: rgb(0; 0; 0);" d="M290.5,526.4h-41.6c-8.8,0-16,7.2-16,16c0,8.8,7.2,16,16,16h41.6c8.8,0,16-7.2,16-16C306.5,533.6,299.4,526.4,290.5,526.4z   "/></g></svg>