<svg width="103" height="104" viewBox="0 0 103 104" fill="none" xmlns="http://www.w3.org/2000/svg">
<rect x="20" y="1" width="72" height="72" stroke="white" stroke-width="2"/>
<rect x="23" y="4" width="32" height="32" fill="#E60881"/>
<rect x="57" y="4" width="32" height="32" fill="white"/>
<rect x="23" y="38" width="32" height="32" fill="#E60881"/>
<rect x="57.1" y="38.1" width="31.8" height="31.8" fill="#AFCB1F" stroke="white" stroke-width="0.2"/>
<path d="M16.8027 83.9844C16.7897 83.8802 16.7637 83.7891 16.7246 83.7109C16.6986 83.6198 16.666 83.5221 16.627 83.418C16.5618 83.2617 16.5033 83.0924 16.4512 82.9102C16.3991 82.7279 16.373 82.513 16.373 82.2656C16.3991 82.1354 16.4316 82.0443 16.4707 81.9922C16.5098 81.9271 16.5488 81.875 16.5879 81.8359L16.666 81.4844H16.959C17.0632 81.4974 17.1673 81.5039 17.2715 81.5039C17.3887 81.5039 17.4993 81.5039 17.6035 81.5039C18.0983 81.5039 18.6061 81.4844 19.127 81.4453C19.6478 81.4062 20.1816 81.3607 20.7285 81.3086C21.3275 81.2305 21.972 81.1719 22.6621 81.1328C22.7272 80.9896 22.7663 80.8984 22.7793 80.8594C22.8053 80.8203 22.8314 80.7747 22.8574 80.7227L23.0723 80.6055C23.3717 80.5924 23.5801 80.6315 23.6973 80.7227C23.8145 80.8008 23.9056 80.8789 23.9707 80.957C24.3092 80.931 24.6543 80.8984 25.0059 80.8594C25.3574 80.8073 25.722 80.7552 26.0996 80.7031C26.6204 80.638 27.1478 80.5729 27.6816 80.5078C28.2155 80.4427 28.7363 80.4102 29.2441 80.4102C29.4655 80.4102 29.6738 80.4167 29.8691 80.4297C30.0645 80.4427 30.2533 80.4622 30.4355 80.4883L30.6699 80.6641C30.722 80.7552 30.7871 80.8398 30.8652 80.918C30.9434 80.9961 31.0345 81.0742 31.1387 81.1523C31.334 81.3086 31.5228 81.5039 31.7051 81.7383C31.9004 81.9727 31.972 82.3177 31.9199 82.7734L31.8223 82.9688C31.7702 83.0208 31.7051 83.0729 31.627 83.125L31.4316 83.3789H31.2168C31.0866 83.3789 30.9889 83.3919 30.9238 83.418C30.8587 83.431 30.7806 83.457 30.6895 83.4961C30.6374 83.5221 30.5788 83.5482 30.5137 83.5742C30.4486 83.5872 30.377 83.6068 30.2988 83.6328C30.1556 83.6198 30.0449 83.6133 29.9668 83.6133C29.8887 83.6133 29.7975 83.6133 29.6934 83.6133C29.3027 83.6133 28.8796 83.6393 28.4238 83.6914C27.9681 83.7435 27.5254 83.8021 27.0957 83.8672C26.7832 83.9062 26.4837 83.9453 26.1973 83.9844C25.9108 84.0104 25.6504 84.0365 25.416 84.0625C25.2858 84.401 25.1686 84.7005 25.0645 84.9609C24.9603 85.2214 24.8496 85.4818 24.7324 85.7422C24.6152 86.0026 24.5046 86.2695 24.4004 86.543C24.2962 86.8034 24.1986 87.0964 24.1074 87.4219C23.9512 87.6562 23.821 87.8841 23.7168 88.1055C23.6126 88.3138 23.528 88.5547 23.4629 88.8281C23.2676 89.0495 23.1243 89.2904 23.0332 89.5508C22.9551 89.8112 22.8835 90.0326 22.8184 90.2148L22.7402 90.5078C22.6491 90.599 22.5905 90.6706 22.5645 90.7227C22.5514 90.7747 22.5189 90.8333 22.4668 90.8984C22.4277 91.0677 22.3757 91.2305 22.3105 91.3867C22.2845 91.4518 22.2585 91.5234 22.2324 91.6016C22.2064 91.6667 22.1999 91.7188 22.2129 91.7578C22.1868 91.901 22.1478 92.0117 22.0957 92.0898C22.0957 92.168 22.0892 92.2461 22.0762 92.3242C22.0632 92.4023 22.0501 92.4805 22.0371 92.5586C22.0111 92.6497 21.9915 92.7344 21.9785 92.8125C21.9655 92.8776 21.972 92.9427 21.998 93.0078C22.0371 93.0599 22.0762 93.112 22.1152 93.1641C22.1543 93.2161 22.1868 93.2812 22.2129 93.3594C22.2389 93.3854 22.2715 93.4049 22.3105 93.418C22.3496 93.431 22.3822 93.4505 22.4082 93.4766C22.5124 93.5677 22.61 93.6198 22.7012 93.6328L22.8965 93.8672C22.9746 94.3359 22.903 94.7005 22.6816 94.9609C22.4473 95.2604 22.0566 95.4102 21.5098 95.4102L21.2363 95.3906C21.1452 95.2995 21.0931 95.2409 21.0801 95.2148C20.9629 95.1628 20.8652 95.1172 20.7871 95.0781C20.709 95.0521 20.6374 94.9935 20.5723 94.9023C20.5462 94.8763 20.5137 94.8633 20.4746 94.8633C20.4355 94.8503 20.403 94.8307 20.377 94.8047C20.2467 94.7656 20.1426 94.7201 20.0645 94.668L19.8496 94.5508C19.8626 94.4206 19.8691 94.3294 19.8691 94.2773C19.765 94.1341 19.6803 93.9779 19.6152 93.8086C19.5632 93.6393 19.5176 93.4635 19.4785 93.2812C19.4395 93.138 19.4004 93.0078 19.3613 92.8906C19.3353 92.7734 19.2897 92.6693 19.2246 92.5781C19.1986 91.6667 19.2832 90.9049 19.4785 90.293C19.6738 89.668 19.8887 89.0625 20.123 88.4766C20.2533 88.1641 20.377 87.8451 20.4941 87.5195C20.6113 87.194 20.7155 86.862 20.8066 86.5234L21.0215 86.3086C21.1126 86.2305 21.1712 86.1849 21.1973 86.1719C21.1973 86.0026 21.2298 85.8398 21.2949 85.6836C21.36 85.5143 21.4316 85.3451 21.5098 85.1758C21.5618 85.0716 21.6074 84.9674 21.6465 84.8633C21.6986 84.7591 21.7311 84.668 21.7441 84.5898C21.653 84.5898 21.5684 84.5964 21.4902 84.6094C21.4251 84.6094 21.3535 84.6159 21.2754 84.6289C21.1061 84.668 20.9434 84.6875 20.7871 84.6875C20.6699 84.6875 20.5853 84.681 20.5332 84.668C20.429 84.7201 20.3314 84.7526 20.2402 84.7656C20.1491 84.7656 20.0579 84.7656 19.9668 84.7656H19.7324H19.498C19.3418 84.7656 19.2181 84.7852 19.127 84.8242C18.9447 84.8242 18.8275 84.8242 18.7754 84.8242C18.7233 84.8242 18.6647 84.8242 18.5996 84.8242H18.3652H18.1309C18.0267 84.8242 17.9095 84.8177 17.7793 84.8047C17.6491 84.7786 17.5124 84.7266 17.3691 84.6484L17.2324 84.4922C17.1543 84.349 17.0827 84.2708 17.0176 84.2578L16.8027 84.1992V83.9844ZM30.8535 95.2344C30.6712 95.1172 30.528 94.9674 30.4238 94.7852C30.3066 94.6029 30.2155 94.4076 30.1504 94.1992C30.0723 93.9909 30.0137 93.776 29.9746 93.5547C29.9225 93.3203 29.8704 93.099 29.8184 92.8906C29.8184 92.7083 29.8574 92.5781 29.9355 92.5C30.0137 92.4089 30.0983 92.3242 30.1895 92.2461C30.502 92.2331 30.7819 92.207 31.0293 92.168C31.2767 92.1289 31.5176 92.0898 31.752 92.0508C31.9863 92.0117 32.2207 91.9792 32.4551 91.9531C32.6895 91.9141 32.9434 91.8945 33.2168 91.8945C33.4121 91.4909 33.5944 91.1068 33.7637 90.7422C33.9329 90.3646 34.0957 90.0065 34.252 89.668C34.3301 89.3424 34.4277 89.043 34.5449 88.7695C34.6751 88.4831 34.7988 88.2161 34.916 87.9688C35.0332 87.7083 35.1374 87.4544 35.2285 87.207C35.3197 86.9466 35.3783 86.6732 35.4043 86.3867C35.5605 85.931 35.6973 85.5143 35.8145 85.1367C35.9447 84.7461 36.0423 84.2839 36.1074 83.75C35.6126 83.8281 35.2155 83.9062 34.916 83.9844C34.6165 84.0495 34.4017 84.1146 34.2715 84.1797C34.0111 84.1667 33.8027 84.1146 33.6465 84.0234C33.5033 83.9323 33.3861 83.8216 33.2949 83.6914C33.2038 83.5612 33.1257 83.4115 33.0605 83.2422C32.9954 83.0729 32.9173 82.8971 32.8262 82.7148C32.8783 82.5977 32.8913 82.4284 32.8652 82.207C32.8392 81.9727 32.7611 81.8034 32.6309 81.6992C32.735 81.6732 32.8132 81.5885 32.8652 81.4453C32.9173 81.2891 32.9238 81.1719 32.8848 81.0938C33.1061 81.0286 33.3405 80.9896 33.5879 80.9766C33.8353 80.9505 34.0762 80.931 34.3105 80.918C34.5579 80.8919 34.7923 80.8659 35.0137 80.8398C35.235 80.8008 35.4238 80.7292 35.5801 80.625C36.2572 80.599 36.9603 80.5729 37.6895 80.5469C38.4316 80.5208 39.1152 80.4883 39.7402 80.4492C39.9746 80.5273 40.2415 80.5664 40.541 80.5664C40.8535 80.5664 41.1595 80.5859 41.459 80.625C41.7715 80.6641 42.0449 80.7487 42.2793 80.8789C42.5267 81.0091 42.696 81.237 42.7871 81.5625C42.9824 81.5885 43.1257 81.6406 43.2168 81.7188C43.321 81.7969 43.3861 81.8945 43.4121 82.0117C43.4382 82.1159 43.4447 82.2396 43.4316 82.3828C43.4316 82.513 43.4316 82.6432 43.4316 82.7734C43.2233 82.9297 42.9564 83.0599 42.6309 83.1641C42.3184 83.2552 41.9733 83.3333 41.5957 83.3984C41.2181 83.4505 40.821 83.4896 40.4043 83.5156C40.0007 83.5286 39.6035 83.5417 39.2129 83.5547C39.1478 83.9844 39.0306 84.4922 38.8613 85.0781C38.7051 85.651 38.5423 86.2174 38.373 86.7773C38.2038 87.3242 38.054 87.819 37.9238 88.2617C37.8066 88.6914 37.7546 88.9714 37.7676 89.1016C37.6374 89.401 37.5267 89.6549 37.4355 89.8633C37.3574 90.0716 37.2793 90.2669 37.2012 90.4492C37.1361 90.6315 37.0645 90.8138 36.9863 90.9961C36.9212 91.1654 36.8366 91.3607 36.7324 91.582H38.0605C38.0866 91.7253 38.1452 91.8229 38.2363 91.875C38.3275 91.9271 38.4251 91.9727 38.5293 92.0117C38.6335 92.0508 38.7246 92.1029 38.8027 92.168C38.8939 92.2201 38.9395 92.3112 38.9395 92.4414C39.1868 92.5065 39.3431 92.6042 39.4082 92.7344C39.4733 92.8646 39.4863 93.0078 39.4473 93.1641C39.4212 93.3073 39.3561 93.457 39.252 93.6133C39.1608 93.7695 39.0697 93.9062 38.9785 94.0234C38.8613 93.9974 38.7507 94.0299 38.6465 94.1211C38.5423 94.1992 38.4447 94.2904 38.3535 94.3945C37.9759 94.3424 37.6048 94.3359 37.2402 94.375C36.8757 94.4141 36.5371 94.4466 36.2246 94.4727C36.1595 94.4857 36.1335 94.5247 36.1465 94.5898C36.1595 94.6419 36.1465 94.681 36.1074 94.707C35.7038 94.5768 35.2871 94.5247 34.8574 94.5508C34.4408 94.5768 34.0111 94.6419 33.5684 94.7461C33.1387 94.8372 32.696 94.9349 32.2402 95.0391C31.7845 95.1562 31.3223 95.2214 30.8535 95.2344ZM43.7129 89.4922C43.7259 89.4401 43.752 89.4206 43.791 89.4336C43.8431 89.4336 43.8887 89.4271 43.9277 89.4141C43.8236 89.3099 43.7585 89.1732 43.7324 89.0039C43.7064 88.8216 43.6413 88.6719 43.5371 88.5547C43.5632 88.4896 43.5827 88.4245 43.5957 88.3594C43.6217 88.2943 43.6803 88.2682 43.7715 88.2812C43.7324 87.9948 43.7389 87.7279 43.791 87.4805C43.8431 87.2331 43.9212 86.9987 44.0254 86.7773C44.1426 86.556 44.2728 86.3411 44.416 86.1328C44.5723 85.9115 44.722 85.6901 44.8652 85.4688C44.9824 85.4427 45.054 85.4557 45.0801 85.5078C45.1061 85.5469 45.1517 85.5339 45.2168 85.4688C45.4251 85.3255 45.5684 85.1693 45.6465 85C45.7246 84.8177 45.7637 84.6224 45.7637 84.4141C45.8809 84.0755 46.0111 83.7435 46.1543 83.418C46.3105 83.0794 46.4863 82.7669 46.6816 82.4805C46.877 82.194 47.0853 81.9466 47.3066 81.7383C47.528 81.5169 47.7689 81.3477 48.0293 81.2305C48.2116 81.0742 48.4395 80.931 48.7129 80.8008C48.9993 80.6706 49.2988 80.5729 49.6113 80.5078C49.9368 80.4297 50.2689 80.3906 50.6074 80.3906C50.946 80.3776 51.2585 80.4102 51.5449 80.4883C51.61 80.5143 51.6491 80.5013 51.6621 80.4492C51.6751 80.3841 51.7077 80.3516 51.7598 80.3516C52.4108 80.4297 52.9902 80.5599 53.498 80.7422C54.0189 80.9245 54.4616 81.1784 54.8262 81.5039C55.0736 81.8945 55.3079 82.3177 55.5293 82.7734C55.7507 83.2161 55.9199 83.6849 56.0371 84.1797C56.1673 84.6615 56.2259 85.1628 56.2129 85.6836C56.1999 86.2044 56.0892 86.7253 55.8809 87.2461C55.4251 87.819 54.8717 88.2812 54.2207 88.6328C53.5697 88.9714 52.8665 89.2578 52.1113 89.4922C51.3691 89.7135 50.5944 89.8958 49.7871 90.0391C48.9928 90.1823 48.2181 90.3385 47.4629 90.5078C47.4759 90.8594 47.4759 91.237 47.4629 91.6406C47.4499 92.0312 47.4043 92.4284 47.3262 92.832C47.2611 93.2227 47.1569 93.6068 47.0137 93.9844C46.8835 94.362 46.7012 94.7135 46.4668 95.0391C46.2064 95.026 45.9329 95.0521 45.6465 95.1172C45.373 95.1823 45.1257 95.2474 44.9043 95.3125C44.8001 95.2474 44.696 95.1823 44.5918 95.1172C44.5007 95.0651 44.3835 95.0326 44.2402 95.0195C44.2793 94.8633 44.2402 94.7005 44.123 94.5312C44.0189 94.362 43.9082 94.1992 43.791 94.043C43.6868 93.8737 43.6152 93.7109 43.5762 93.5547C43.5501 93.3854 43.6283 93.2357 43.8105 93.1055C43.7064 93.0143 43.6543 92.8711 43.6543 92.6758C43.7064 92.7279 43.7715 92.7539 43.8496 92.7539C43.8236 92.5195 43.8496 92.2396 43.9277 91.9141C44.0189 91.5885 44.0905 91.2695 44.1426 90.957C44.2077 90.6315 44.2207 90.3385 44.1816 90.0781C44.1426 89.8047 43.9863 89.6094 43.7129 89.4922ZM48.791 84.9219C48.7389 85.0651 48.6934 85.1953 48.6543 85.3125C48.6283 85.4167 48.5957 85.5143 48.5566 85.6055C48.5176 85.6966 48.472 85.7878 48.4199 85.8789C48.3809 85.9701 48.3353 86.0742 48.2832 86.1914C48.3092 86.2695 48.3613 86.3281 48.4395 86.3672C48.5176 86.4062 48.5697 86.4648 48.5957 86.543C48.778 86.4518 48.9603 86.3867 49.1426 86.3477C49.3249 86.2956 49.5072 86.2565 49.6895 86.2305C49.8717 86.2044 50.054 86.1719 50.2363 86.1328C50.4186 86.0938 50.6074 86.0286 50.8027 85.9375C50.998 85.8464 51.1999 85.7747 51.4082 85.7227C51.6296 85.6576 51.8444 85.5924 52.0527 85.5273C52.2611 85.4622 52.4629 85.3906 52.6582 85.3125C52.8535 85.2214 53.0228 85.1042 53.166 84.9609C52.9837 84.7917 52.7103 84.6419 52.3457 84.5117C51.9811 84.3815 51.584 84.3034 51.1543 84.2773C50.7376 84.2383 50.3145 84.2643 49.8848 84.3555C49.4681 84.4466 49.1035 84.6354 48.791 84.9219Z" fill="#E60881"/>
<path d="M59.5156 82.9844C59.5026 82.8802 59.4766 82.7891 59.4375 82.7109C59.4115 82.6198 59.3789 82.5221 59.3398 82.418C59.2747 82.2617 59.2161 82.0924 59.1641 81.9102C59.112 81.7279 59.0859 81.513 59.0859 81.2656C59.112 81.1354 59.1445 81.0443 59.1836 80.9922C59.2227 80.9271 59.2617 80.875 59.3008 80.8359L59.3789 80.4844H59.6719C59.776 80.4974 59.8802 80.5039 59.9844 80.5039C60.1016 80.5039 60.2122 80.5039 60.3164 80.5039C60.8112 80.5039 61.319 80.4844 61.8398 80.4453C62.3607 80.4062 62.8945 80.3607 63.4414 80.3086C64.0404 80.2305 64.6849 80.1719 65.375 80.1328C65.4401 79.9896 65.4792 79.8984 65.4922 79.8594C65.5182 79.8203 65.5443 79.7747 65.5703 79.7227L65.7852 79.6055C66.0846 79.5924 66.293 79.6315 66.4102 79.7227C66.5273 79.8008 66.6185 79.8789 66.6836 79.957C67.0221 79.931 67.3672 79.8984 67.7188 79.8594C68.0703 79.8073 68.4349 79.7552 68.8125 79.7031C69.3333 79.638 69.8607 79.5729 70.3945 79.5078C70.9284 79.4427 71.4492 79.4102 71.957 79.4102C72.1784 79.4102 72.3867 79.4167 72.582 79.4297C72.7773 79.4427 72.9661 79.4622 73.1484 79.4883L73.3828 79.6641C73.4349 79.7552 73.5 79.8398 73.5781 79.918C73.6562 79.9961 73.7474 80.0742 73.8516 80.1523C74.0469 80.3086 74.2357 80.5039 74.418 80.7383C74.6133 80.9727 74.6849 81.3177 74.6328 81.7734L74.5352 81.9688C74.4831 82.0208 74.418 82.0729 74.3398 82.125L74.1445 82.3789H73.9297C73.7995 82.3789 73.7018 82.3919 73.6367 82.418C73.5716 82.431 73.4935 82.457 73.4023 82.4961C73.3503 82.5221 73.2917 82.5482 73.2266 82.5742C73.1615 82.5872 73.0898 82.6068 73.0117 82.6328C72.8685 82.6198 72.7578 82.6133 72.6797 82.6133C72.6016 82.6133 72.5104 82.6133 72.4062 82.6133C72.0156 82.6133 71.5924 82.6393 71.1367 82.6914C70.681 82.7435 70.2383 82.8021 69.8086 82.8672C69.4961 82.9062 69.1966 82.9453 68.9102 82.9844C68.6237 83.0104 68.3633 83.0365 68.1289 83.0625C67.9987 83.401 67.8815 83.7005 67.7773 83.9609C67.6732 84.2214 67.5625 84.4818 67.4453 84.7422C67.3281 85.0026 67.2174 85.2695 67.1133 85.543C67.0091 85.8034 66.9115 86.0964 66.8203 86.4219C66.6641 86.6562 66.5339 86.8841 66.4297 87.1055C66.3255 87.3138 66.2409 87.5547 66.1758 87.8281C65.9805 88.0495 65.8372 88.2904 65.7461 88.5508C65.668 88.8112 65.5964 89.0326 65.5312 89.2148L65.4531 89.5078C65.362 89.599 65.3034 89.6706 65.2773 89.7227C65.2643 89.7747 65.2318 89.8333 65.1797 89.8984C65.1406 90.0677 65.0885 90.2305 65.0234 90.3867C64.9974 90.4518 64.9714 90.5234 64.9453 90.6016C64.9193 90.6667 64.9128 90.7188 64.9258 90.7578C64.8997 90.901 64.8607 91.0117 64.8086 91.0898C64.8086 91.168 64.8021 91.2461 64.7891 91.3242C64.776 91.4023 64.763 91.4805 64.75 91.5586C64.724 91.6497 64.7044 91.7344 64.6914 91.8125C64.6784 91.8776 64.6849 91.9427 64.7109 92.0078C64.75 92.0599 64.7891 92.112 64.8281 92.1641C64.8672 92.2161 64.8997 92.2812 64.9258 92.3594C64.9518 92.3854 64.9844 92.4049 65.0234 92.418C65.0625 92.431 65.0951 92.4505 65.1211 92.4766C65.2253 92.5677 65.3229 92.6198 65.4141 92.6328L65.6094 92.8672C65.6875 93.3359 65.6159 93.7005 65.3945 93.9609C65.1602 94.2604 64.7695 94.4102 64.2227 94.4102L63.9492 94.3906C63.8581 94.2995 63.806 94.2409 63.793 94.2148C63.6758 94.1628 63.5781 94.1172 63.5 94.0781C63.4219 94.0521 63.3503 93.9935 63.2852 93.9023C63.2591 93.8763 63.2266 93.8633 63.1875 93.8633C63.1484 93.8503 63.1159 93.8307 63.0898 93.8047C62.9596 93.7656 62.8555 93.7201 62.7773 93.668L62.5625 93.5508C62.5755 93.4206 62.582 93.3294 62.582 93.2773C62.4779 93.1341 62.3932 92.9779 62.3281 92.8086C62.276 92.6393 62.2305 92.4635 62.1914 92.2812C62.1523 92.138 62.1133 92.0078 62.0742 91.8906C62.0482 91.7734 62.0026 91.6693 61.9375 91.5781C61.9115 90.6667 61.9961 89.9049 62.1914 89.293C62.3867 88.668 62.6016 88.0625 62.8359 87.4766C62.9661 87.1641 63.0898 86.8451 63.207 86.5195C63.3242 86.194 63.4284 85.862 63.5195 85.5234L63.7344 85.3086C63.8255 85.2305 63.8841 85.1849 63.9102 85.1719C63.9102 85.0026 63.9427 84.8398 64.0078 84.6836C64.0729 84.5143 64.1445 84.3451 64.2227 84.1758C64.2747 84.0716 64.3203 83.9674 64.3594 83.8633C64.4115 83.7591 64.444 83.668 64.457 83.5898C64.3659 83.5898 64.2812 83.5964 64.2031 83.6094C64.138 83.6094 64.0664 83.6159 63.9883 83.6289C63.819 83.668 63.6562 83.6875 63.5 83.6875C63.3828 83.6875 63.2982 83.681 63.2461 83.668C63.1419 83.7201 63.0443 83.7526 62.9531 83.7656C62.862 83.7656 62.7708 83.7656 62.6797 83.7656H62.4453H62.2109C62.0547 83.7656 61.931 83.7852 61.8398 83.8242C61.6576 83.8242 61.5404 83.8242 61.4883 83.8242C61.4362 83.8242 61.3776 83.8242 61.3125 83.8242H61.0781H60.8438C60.7396 83.8242 60.6224 83.8177 60.4922 83.8047C60.362 83.7786 60.2253 83.7266 60.082 83.6484L59.9453 83.4922C59.8672 83.349 59.7956 83.2708 59.7305 83.2578L59.5156 83.1992V82.9844ZM77.3359 94.0781C76.763 94.1562 76.2422 94.1302 75.7734 94C75.3047 93.8698 74.8815 93.668 74.5039 93.3945C74.1393 93.1211 73.8203 92.7956 73.5469 92.418C73.2865 92.0404 73.0716 91.6367 72.9023 91.207C72.7852 90.3216 72.8177 89.5208 73 88.8047C73.1823 88.0755 73.4492 87.4049 73.8008 86.793C74.1523 86.181 74.5495 85.6081 74.9922 85.0742C75.4479 84.5404 75.8841 84.026 76.3008 83.5312C76.3919 83.5703 76.4635 83.5703 76.5156 83.5312C76.5807 83.4922 76.6328 83.4401 76.6719 83.375C76.724 83.3099 76.776 83.2448 76.8281 83.1797C76.8932 83.1146 76.9648 83.069 77.043 83.043C77.0951 82.9258 77.1602 82.8281 77.2383 82.75C77.3294 82.6719 77.4206 82.6003 77.5117 82.5352C77.6159 82.457 77.707 82.3789 77.7852 82.3008C77.8763 82.2227 77.9544 82.125 78.0195 82.0078C78.1497 81.9818 78.2604 81.9362 78.3516 81.8711C78.4557 81.806 78.5469 81.7344 78.625 81.6562C78.7161 81.5781 78.8073 81.5065 78.8984 81.4414C78.9896 81.3763 79.1003 81.3242 79.2305 81.2852V81.0312C79.5169 80.901 79.7253 80.7578 79.8555 80.6016C79.9857 80.4453 80.1419 80.2435 80.3242 79.9961C80.4674 79.9831 80.5781 79.9766 80.6562 79.9766C80.7474 79.9766 80.8841 79.9635 81.0664 79.9375C81.1836 79.7161 81.2943 79.5534 81.3984 79.4492C81.5026 79.3451 81.6523 79.2279 81.8477 79.0977C82.043 79.2018 82.2513 79.2669 82.4727 79.293C82.694 79.306 82.8958 79.4036 83.0781 79.5859C83.0911 79.7422 83.1367 79.8659 83.2148 79.957C83.293 80.0352 83.3776 80.1133 83.4688 80.1914C83.5599 80.2565 83.651 80.3281 83.7422 80.4062C83.8333 80.4844 83.8919 80.5951 83.918 80.7383C83.9831 80.7383 84.0221 80.7253 84.0352 80.6992C84.0612 80.6732 84.1068 80.6667 84.1719 80.6797C84.1979 80.7839 84.224 80.8685 84.25 80.9336C84.276 80.9987 84.3021 81.0573 84.3281 81.1094C84.3672 81.1615 84.3997 81.2201 84.4258 81.2852C84.4648 81.3503 84.4974 81.4284 84.5234 81.5195C84.4583 81.6758 84.3997 81.8451 84.3477 82.0273C84.2956 82.1966 84.1914 82.3138 84.0352 82.3789C84.0352 82.4831 84.0742 82.5417 84.1523 82.5547C84.2305 82.5547 84.276 82.6003 84.2891 82.6914C84.3021 82.8086 84.2826 82.9062 84.2305 82.9844C84.5951 83.5964 84.9271 84.2409 85.2266 84.918C85.526 85.582 85.8646 86.2201 86.2422 86.832C86.2161 87.0143 86.2227 87.1966 86.2617 87.3789C86.3138 87.5482 86.3724 87.7174 86.4375 87.8867C86.5156 88.056 86.5872 88.2253 86.6523 88.3945C86.7174 88.5638 86.763 88.7331 86.7891 88.9023C86.8151 89.1237 86.8151 89.3646 86.7891 89.625C86.763 89.8724 86.7109 90.1133 86.6328 90.3477C86.5547 90.582 86.4505 90.8034 86.3203 91.0117C86.1901 91.207 86.0404 91.3568 85.8711 91.4609C85.6628 91.7214 85.4023 91.9362 85.0898 92.1055C84.7773 92.2617 84.4909 92.4505 84.2305 92.6719C84.0482 92.776 83.8529 92.8542 83.6445 92.9062C83.4362 92.9453 83.2214 92.9909 83 93.043C82.8307 93.1471 82.6289 93.2513 82.3945 93.3555C82.1602 93.4466 81.9193 93.5312 81.6719 93.6094C81.4245 93.6875 81.1771 93.7526 80.9297 93.8047C80.6823 93.8438 80.4609 93.8503 80.2656 93.8242C79.7969 93.9935 79.3411 94.1107 78.8984 94.1758C78.4557 94.2409 77.9349 94.2083 77.3359 94.0781ZM77.5898 86.9688C77.4596 87.2682 77.3034 87.5417 77.1211 87.7891C76.9518 88.0234 76.7826 88.2643 76.6133 88.5117C76.444 88.7591 76.2943 89.026 76.1641 89.3125C76.0469 89.5859 75.9818 89.9115 75.9688 90.2891C76.2292 90.5104 76.5352 90.6471 76.8867 90.6992C77.2513 90.7383 77.6224 90.7448 78 90.7188C78.3776 90.6797 78.7552 90.6276 79.1328 90.5625C79.5104 90.4974 79.849 90.4648 80.1484 90.4648C80.1484 90.3477 80.2005 90.2891 80.3047 90.2891C80.8516 90.237 81.3594 90.0872 81.8281 89.8398C82.2969 89.5794 82.7852 89.319 83.293 89.0586C83.3581 88.9023 83.4427 88.7656 83.5469 88.6484C83.651 88.5312 83.7096 88.362 83.7227 88.1406C83.6576 88.0234 83.612 87.9258 83.5859 87.8477C83.5729 87.7695 83.5664 87.6523 83.5664 87.4961C83.2279 87.0273 82.9349 86.5195 82.6875 85.9727C82.4401 85.4128 82.1536 84.8854 81.8281 84.3906C81.8021 84.4557 81.75 84.5208 81.6719 84.5859C81.5938 84.651 81.5091 84.638 81.418 84.5469C81.3789 84.6771 81.3203 84.7682 81.2422 84.8203C81.1641 84.8594 81.0729 84.8789 80.9688 84.8789C80.8776 84.8789 80.7799 84.8594 80.6758 84.8203C80.5846 84.7812 80.5 84.7292 80.4219 84.6641C79.9661 85.0286 79.5104 85.3802 79.0547 85.7188C78.612 86.0573 78.2083 86.4544 77.8438 86.9102C77.7786 86.9492 77.7396 86.9622 77.7266 86.9492C77.7135 86.9362 77.668 86.9427 77.5898 86.9688ZM90 88.4922C90.013 88.4401 90.0391 88.4206 90.0781 88.4336C90.1302 88.4336 90.1758 88.4271 90.2148 88.4141C90.1107 88.3099 90.0456 88.1732 90.0195 88.0039C89.9935 87.8216 89.9284 87.6719 89.8242 87.5547C89.8503 87.4896 89.8698 87.4245 89.8828 87.3594C89.9089 87.2943 89.9674 87.2682 90.0586 87.2812C90.0195 86.9948 90.026 86.7279 90.0781 86.4805C90.1302 86.2331 90.2083 85.9987 90.3125 85.7773C90.4297 85.556 90.5599 85.3411 90.7031 85.1328C90.8594 84.9115 91.0091 84.6901 91.1523 84.4688C91.2695 84.4427 91.3411 84.4557 91.3672 84.5078C91.3932 84.5469 91.4388 84.5339 91.5039 84.4688C91.7122 84.3255 91.8555 84.1693 91.9336 84C92.0117 83.8177 92.0508 83.6224 92.0508 83.4141C92.168 83.0755 92.2982 82.7435 92.4414 82.418C92.5977 82.0794 92.7734 81.7669 92.9688 81.4805C93.1641 81.194 93.3724 80.9466 93.5938 80.7383C93.8151 80.5169 94.056 80.3477 94.3164 80.2305C94.4987 80.0742 94.7266 79.931 95 79.8008C95.2865 79.6706 95.5859 79.5729 95.8984 79.5078C96.224 79.4297 96.556 79.3906 96.8945 79.3906C97.2331 79.3776 97.5456 79.4102 97.832 79.4883C97.8971 79.5143 97.9362 79.5013 97.9492 79.4492C97.9622 79.3841 97.9948 79.3516 98.0469 79.3516C98.6979 79.4297 99.2773 79.5599 99.7852 79.7422C100.306 79.9245 100.749 80.1784 101.113 80.5039C101.361 80.8945 101.595 81.3177 101.816 81.7734C102.038 82.2161 102.207 82.6849 102.324 83.1797C102.454 83.6615 102.513 84.1628 102.5 84.6836C102.487 85.2044 102.376 85.7253 102.168 86.2461C101.712 86.819 101.159 87.2812 100.508 87.6328C99.8568 87.9714 99.1536 88.2578 98.3984 88.4922C97.6562 88.7135 96.8815 88.8958 96.0742 89.0391C95.2799 89.1823 94.5052 89.3385 93.75 89.5078C93.763 89.8594 93.763 90.237 93.75 90.6406C93.737 91.0312 93.6914 91.4284 93.6133 91.832C93.5482 92.2227 93.444 92.6068 93.3008 92.9844C93.1706 93.362 92.9883 93.7135 92.7539 94.0391C92.4935 94.026 92.2201 94.0521 91.9336 94.1172C91.6602 94.1823 91.4128 94.2474 91.1914 94.3125C91.0872 94.2474 90.9831 94.1823 90.8789 94.1172C90.7878 94.0651 90.6706 94.0326 90.5273 94.0195C90.5664 93.8633 90.5273 93.7005 90.4102 93.5312C90.306 93.362 90.1953 93.1992 90.0781 93.043C89.974 92.8737 89.9023 92.7109 89.8633 92.5547C89.8372 92.3854 89.9154 92.2357 90.0977 92.1055C89.9935 92.0143 89.9414 91.8711 89.9414 91.6758C89.9935 91.7279 90.0586 91.7539 90.1367 91.7539C90.1107 91.5195 90.1367 91.2396 90.2148 90.9141C90.306 90.5885 90.3776 90.2695 90.4297 89.957C90.4948 89.6315 90.5078 89.3385 90.4688 89.0781C90.4297 88.8047 90.2734 88.6094 90 88.4922ZM95.0781 83.9219C95.026 84.0651 94.9805 84.1953 94.9414 84.3125C94.9154 84.4167 94.8828 84.5143 94.8438 84.6055C94.8047 84.6966 94.7591 84.7878 94.707 84.8789C94.668 84.9701 94.6224 85.0742 94.5703 85.1914C94.5964 85.2695 94.6484 85.3281 94.7266 85.3672C94.8047 85.4062 94.8568 85.4648 94.8828 85.543C95.0651 85.4518 95.2474 85.3867 95.4297 85.3477C95.612 85.2956 95.7943 85.2565 95.9766 85.2305C96.1589 85.2044 96.3411 85.1719 96.5234 85.1328C96.7057 85.0938 96.8945 85.0286 97.0898 84.9375C97.2852 84.8464 97.487 84.7747 97.6953 84.7227C97.9167 84.6576 98.1315 84.5924 98.3398 84.5273C98.5482 84.4622 98.75 84.3906 98.9453 84.3125C99.1406 84.2214 99.3099 84.1042 99.4531 83.9609C99.2708 83.7917 98.9974 83.6419 98.6328 83.5117C98.2682 83.3815 97.8711 83.3034 97.4414 83.2773C97.0247 83.2383 96.6016 83.2643 96.1719 83.3555C95.7552 83.4466 95.3906 83.6354 95.0781 83.9219Z" fill="#AFCB1F"/>
</svg>
