<svg width="70" height="70" viewBox="0 0 70 70" fill="none" xmlns="http://www.w3.org/2000/svg">
<path d="M61.9792 53.8708L57.1667 55.0083C56.0875 55.2708 55.2417 56.0875 55.0083 57.1667L53.9875 61.4542C53.4333 63.7875 50.4583 64.5167 48.9125 62.6792L40.1917 52.6458C40.0293 52.459 39.9173 52.2339 39.8661 51.9917C39.815 51.7496 39.8265 51.4984 39.8995 51.2619C39.9725 51.0254 40.1046 50.8114 40.2833 50.6402C40.462 50.469 40.6814 50.3462 40.9208 50.2833C46.0982 49.0247 50.7316 46.1301 54.1333 42.0292C54.6875 41.3583 55.6792 41.2708 56.2917 41.8833L62.7667 48.3583C64.9833 50.575 64.1958 53.3458 61.9792 53.8708ZM7.87499 53.8708L12.6875 55.0083C13.7667 55.2708 14.6125 56.0875 14.8458 57.1667L15.8667 61.4542C16.4208 63.7875 19.3958 64.5167 20.9417 62.6792L29.6625 52.6458C30.3625 51.8292 29.9833 50.5458 28.9333 50.2833C23.756 49.0247 19.1225 46.1301 15.7208 42.0292C15.5949 41.8687 15.4366 41.7366 15.2563 41.6412C15.076 41.5459 14.8776 41.4895 14.6741 41.4758C14.4706 41.462 14.2665 41.4912 14.075 41.5614C13.8835 41.6316 13.7089 41.7413 13.5625 41.8833L7.08749 48.3583C4.87082 50.575 5.65832 53.3458 7.87499 53.8708ZM35 5.83334C23.7125 5.83334 14.5833 14.9625 14.5833 26.25C14.5833 30.4792 15.8375 34.3583 17.9958 37.5958C19.5774 39.9547 21.6346 41.9568 24.0356 43.4737C26.4365 44.9906 29.1281 45.9888 31.9375 46.4042C32.9292 46.5792 33.95 46.6667 35 46.6667C36.05 46.6667 37.0708 46.5792 38.0625 46.4042C43.8667 45.5583 48.8542 42.2625 52.0042 37.5958C54.2433 34.2368 55.4312 30.2869 55.4167 26.25C55.4167 14.9625 46.2875 5.83334 35 5.83334ZM43.925 25.6083L41.5042 28.0292C41.0958 28.4375 40.8625 29.225 41.0083 29.8083L41.7083 32.8125C42.2625 35.175 41.0083 36.1083 38.9083 34.8542L35.9917 33.1333C35.6955 32.9753 35.3649 32.8926 35.0292 32.8926C34.6934 32.8926 34.3629 32.9753 34.0667 33.1333L31.15 34.8542C29.05 36.0792 27.7958 35.175 28.35 32.8125L29.05 29.8083C29.1667 29.2542 28.9625 28.4375 28.5542 28.0292L26.075 25.6083C24.6458 24.1792 25.1125 22.75 27.0958 22.4292L30.2167 21.9042C30.7417 21.8167 31.3542 21.35 31.5875 20.8833L33.3083 17.4417C34.2417 15.575 35.7583 15.575 36.6917 17.4417L38.4125 20.8833C38.6458 21.35 39.2583 21.8167 39.8125 21.9042L42.9333 22.4292C44.8875 22.75 45.3542 24.1792 43.925 25.6083Z" fill="white"/>
</svg>
