<svg width="83" height="93" viewBox="0 0 83 93" fill="none" xmlns="http://www.w3.org/2000/svg">
<path d="M22.2439 12.622H12.622C10.0701 12.622 7.62267 13.6357 5.8182 15.4402C4.01374 17.2446 3 19.692 3 22.2439V79.9756C3 82.5275 4.01374 84.9749 5.8182 86.7794C7.62267 88.5838 10.0701 89.5976 12.622 89.5976H70.3537C72.9056 89.5976 75.3529 88.5838 77.1574 86.7794C78.9619 84.9749 79.9756 82.5275 79.9756 79.9756V22.2439C79.9756 19.692 78.9619 17.2446 77.1574 15.4402C75.3529 13.6357 72.9056 12.622 70.3537 12.622H60.7317M22.2439 12.622C22.2439 10.0701 23.2576 7.62267 25.0621 5.8182C26.8666 4.01374 29.314 3 31.8659 3H51.1098C53.6617 3 56.109 4.01374 57.9135 5.8182C59.718 7.62267 60.7317 10.0701 60.7317 12.622M22.2439 12.622C22.2439 15.1739 23.2576 17.6212 25.0621 19.4257C26.8666 21.2302 29.314 22.2439 31.8659 22.2439H51.1098C53.6617 22.2439 56.109 21.2302 57.9135 19.4257C59.718 17.6212 60.7317 15.1739 60.7317 12.622M22.2439 41.4878H60.7317M22.2439 60.7317H41.4878" stroke="white" stroke-width="5" stroke-linecap="round" stroke-linejoin="round"/>
</svg>
