<svg xmlns="http://www.w3.org/2000/svg" xmlns:xlink="http://www.w3.org/1999/xlink" version="1.1" x="0px" y="0px" viewBox="0 0 64 80" style="enable-background:new 0 0 64 64;" xml:space="preserve"><g><g><path d="M58,6.8300781h-9V3c0-0.5522461-0.4477539-1-1-1H28.0800781c-0.5522461,0-1,0.4477539-1,1v3.8300781H18    c-0.5522461,0-1,0.4477539-1,1V17c0.0055847,1.304985,1.9940758,1.3098412,1.9999962-0.0000648C19,17,19,8.8300781,19,8.8300781    c10.3933334,0,27.6060638,0,38,0V60H19V36c-0.0131378-1.3063927-1.9817657-1.3187027-1.9999924,0.0000496C17,36,17,61,17,61    c0,0.5522461,0.4477539,1,1,1h40c0.5522461,0,1-0.4477539,1-1V7.8300781C59,7.277832,58.5522461,6.8300781,58,6.8300781z     M29.0800781,6.8300781V4H47v2.8300781H29.0800781z"/><path d="M40,32V21c0-0.5522461-0.4477539-1-1-1H6c-0.5522461,0-1,0.4477539-1,1v11c0,0.5522461,0.4477539,1,1,1h33    C39.5522461,33,40,32.5522461,40,32z M38,31H7v-9h31V31z"/><path d="M12.2929688,29.2070313c0.4087353,0.4278259,1.1632128,0.3739033,1.506834-0.1069489    c0.0000019,0.0000153,3.0000019-3.9999847,3.0000019-3.9999847c0.7799129-1.0486259-0.8103905-2.2432556-1.5996437-1.2001419    c0.0000343-0.0000534-2.3085594,3.0775833-2.3085594,3.0775833l-1.1845703-1.1845703    c-0.9283876-0.9206638-2.3349504,0.4856548-1.4140167,1.4141045    C10.2929688,27.2070313,12.2929688,29.2070313,12.2929688,29.2070313z"/><path d="M24,25.5h4.5c1.3063469-0.0055389,1.3086872-1.9943237-0.0000629-1.9999962C28.5,23.5,24,23.5,24,23.5    C22.6936531,23.5055389,22.6913128,25.4943237,24,25.5z"/><path d="M24,29.5h9c1.3049393-0.0052567,1.309803-1.9942894-0.0000648-1.9999962C33,27.5,24,27.5,24,27.5    C22.6950626,27.5052567,22.690197,29.4942894,24,29.5z"/><path d="M53,49c1.3046188-0.0051956,1.3100548-1.9942818-0.0000648-1.9999962C53,47,43,47,43,47    c-1.3046188,0.0051956-1.3100548,1.9942818,0.0000648,1.9999962C43,49,53,49,53,49z"/><path d="M38,53c0,0.5522461,0.4477539,1,1,1h14c0.5522461,0,1-0.4477539,1-1s-0.4477539-1-1-1H39    C38.4477539,52,38,52.4477539,38,53z"/><path d="M22,43.5c0,4.1357422,3.3642578,7.5,7.5,7.5c9.9263992-0.3518982,9.9238472-14.6495972-0.000124-15.0000076    C25.3642578,36,22,39.3642578,22,43.5z M35,43.5c-0.2310715,7.2685699-10.7700157,7.2668648-11.0000019-0.0001221    C24.2310696,36.2314301,34.7700157,36.2331352,35,43.5z"/><path d="M28.5,41.3334961c0.0623188,0.8775711-0.2039356,2.5028648,0.2929325,2.8735275    c0.0000362,0.0000076,1.0835323,1.0835037,1.0835323,1.0835037c0.9281044,0.9205933,2.3351173-0.4855728,1.4140167-1.4141045    C31.2905273,43.8764648,30.5,43.0859375,30.5,43.0859375v-1.7524414C30.4943275,40.0257607,28.505537,40.0259514,28.5,41.3334961z    "/></g></g></svg>