<svg xmlns="http://www.w3.org/2000/svg" viewBox="0 0 32 40" x="0px" y="0px"><path fill="orange" d="m32,14.9351c0,3.5733-2.5066,6.56-5.8667,7.296-.096-5.5147-4.5973-9.9627-10.1333-9.9627s-10.0373,4.448-10.1333,9.9627c-3.36-.736-5.8667-3.7227-5.8667-7.296,0-1.6.5867-3.0613,1.5574-4.1813.9813-1.1307,2.336-1.8987,3.872-2.1333.4587-2.4747,2.624-4.352,5.2373-4.352.7574,0,1.472.16,2.1227.4373,1.6533-2.784,5.0667-4.3733,8.6827-3.3066,3.1146.928,5.1947,3.8934,5.1947,7.1467v.0854c3.0294.5013,5.3333,3.136,5.3333,6.304Z"/><path fill="orange" d="m16,13.8684c-4.7146,0-8.5333,3.8187-8.5333,8.5333s3.8187,8.5333,8.5333,8.5333,8.5333-3.8187,8.5333-8.5333-3.8186-8.5333-8.5333-8.5333Zm2.6987,7.3813c-.16.16-.3627.2347-.5654.2347s-.4053-.0747-.5653-.2347l-.768-.768v5.7706c0,.448-.3626.8-.8.8s-.8-.352-.8-.8v-5.7706l-.768.768c-.3094.3094-.8214.3094-1.1307,0-.3094-.3093-.3094-.8213,0-1.1307l2.1333-2.1333c.3093-.3093.8213-.3093,1.1307,0l2.1333,2.1333c.3093.3094.3093.8214,0,1.1307Z"/></svg>