<svg width="45" height="45" viewBox="0 0 45 45" fill="none" xmlns="http://www.w3.org/2000/svg">
<path d="M26.7188 28.9287C26.4406 28.9287 26.1687 29.0229 25.9375 29.1995C25.7062 29.3761 25.526 29.6271 25.4195 29.9208C25.3131 30.2145 25.2853 30.5376 25.3395 30.8494C25.3938 31.1611 25.5277 31.4475 25.7244 31.6722C25.921 31.897 26.1716 32.0501 26.4444 32.1121C26.7172 32.1741 26.9999 32.1422 27.2569 32.0206C27.5139 31.899 27.7335 31.693 27.888 31.4287C28.0425 31.1644 28.125 30.8537 28.125 30.5358C28.125 30.1096 27.9768 29.7008 27.7131 29.3994C27.4494 29.098 27.0917 28.9287 26.7188 28.9287ZM29.5312 19.2859C29.2531 19.2859 28.9812 19.3801 28.75 19.5567C28.5187 19.7333 28.3385 19.9843 28.232 20.278C28.1256 20.5717 28.0978 20.8948 28.152 21.2066C28.2063 21.5183 28.3402 21.8047 28.5369 22.0294C28.7335 22.2542 28.9841 22.4073 29.2569 22.4693C29.5297 22.5313 29.8124 22.4995 30.0694 22.3778C30.3264 22.2562 30.546 22.0502 30.7005 21.7859C30.855 21.5216 30.9375 21.2109 30.9375 20.893C30.9375 20.4668 30.7893 20.058 30.5256 19.7566C30.2619 19.4552 29.9042 19.2859 29.5312 19.2859ZM32.3438 25.7144C32.6219 25.7144 32.8938 25.6202 33.125 25.4436C33.3563 25.267 33.5365 25.016 33.643 24.7223C33.7494 24.4286 33.7772 24.1055 33.723 23.7937C33.6687 23.482 33.5348 23.1956 33.3381 22.9709C33.1415 22.7461 32.8909 22.593 32.6181 22.531C32.3453 22.469 32.0626 22.5008 31.8056 22.6225C31.5486 22.7441 31.329 22.9501 31.1745 23.2144C31.02 23.4787 30.9375 23.7894 30.9375 24.1073C30.9375 24.5335 31.0857 24.9423 31.3494 25.2437C31.6131 25.5451 31.9708 25.7144 32.3438 25.7144ZM29.5312 28.9287C29.8094 28.9287 30.0813 28.8344 30.3125 28.6578C30.5438 28.4812 30.724 28.2302 30.8305 27.9366C30.9369 27.6429 30.9647 27.3198 30.9105 27.008C30.8562 26.6963 30.7223 26.4099 30.5256 26.1851C30.329 25.9604 30.0784 25.8073 29.8056 25.7453C29.5328 25.6833 29.2501 25.7151 28.9931 25.8368C28.7361 25.9584 28.5165 26.1644 28.362 26.4287C28.2075 26.693 28.125 27.0037 28.125 27.3215C28.125 27.7478 28.2732 28.1566 28.5369 28.458C28.8006 28.7594 29.1583 28.9287 29.5312 28.9287ZM26.7188 22.5002C26.4406 22.5002 26.1687 22.5944 25.9375 22.771C25.7062 22.9476 25.526 23.1986 25.4195 23.4923C25.3131 23.7859 25.2853 24.1091 25.3395 24.4208C25.3938 24.7326 25.5277 25.0189 25.7244 25.2437C25.921 25.4685 26.1716 25.6215 26.4444 25.6835C26.7172 25.7455 26.9999 25.7137 27.2569 25.5921C27.5139 25.4704 27.7335 25.2645 27.888 25.0002C28.0425 24.7359 28.125 24.4251 28.125 24.1073C28.125 23.681 27.9768 23.2723 27.7131 22.9709C27.4494 22.6695 27.0917 22.5002 26.7188 22.5002ZM37.9688 19.2859C38.2469 19.2859 38.5188 19.1916 38.75 19.015C38.9813 18.8384 39.1615 18.5874 39.268 18.2938C39.3744 18.0001 39.4022 17.677 39.348 17.3652C39.2937 17.0535 39.1598 16.7671 38.9631 16.5423C38.7665 16.3176 38.5159 16.1645 38.2431 16.1025C37.9703 16.0405 37.6876 16.0723 37.4306 16.194C37.1736 16.3156 36.954 16.5216 36.7995 16.7859C36.645 17.0502 36.5625 17.3609 36.5625 17.6788C36.5625 18.105 36.7107 18.5138 36.9744 18.8152C37.2381 19.1166 37.5958 19.2859 37.9688 19.2859ZM33.75 20.893C33.75 21.2109 33.8325 21.5216 33.987 21.7859C34.1415 22.0502 34.3611 22.2562 34.6181 22.3778C34.8751 22.4995 35.1578 22.5313 35.4306 22.4693C35.7034 22.4073 35.954 22.2542 36.1506 22.0294C36.3473 21.8047 36.4812 21.5183 36.5355 21.2066C36.5897 20.8948 36.5619 20.5717 36.4555 20.278C36.349 19.9843 36.1688 19.7333 35.9375 19.5567C35.7063 19.3801 35.4344 19.2859 35.1562 19.2859C34.7833 19.2859 34.4256 19.4552 34.1619 19.7566C33.8982 20.058 33.75 20.4668 33.75 20.893ZM32.3438 16.0716C32.0656 16.0716 31.7937 16.1659 31.5625 16.3425C31.3312 16.5191 31.151 16.7701 31.0445 17.0637C30.9381 17.3574 30.9103 17.6805 30.9645 17.9923C31.0188 18.304 31.1527 18.5904 31.3494 18.8152C31.546 19.0399 31.7966 19.193 32.0694 19.255C32.3422 19.317 32.6249 19.2852 32.8819 19.1636C33.1389 19.0419 33.3585 18.8359 33.513 18.5716C33.6675 18.3073 33.75 17.9966 33.75 17.6788C33.75 17.2525 33.6018 16.8437 33.3381 16.5423C33.0744 16.2409 32.7167 16.0716 32.3438 16.0716ZM40.7812 19.2859C40.5031 19.2859 40.2312 19.3801 40 19.5567C39.7687 19.7333 39.5885 19.9843 39.482 20.278C39.3756 20.5717 39.3478 20.8948 39.402 21.2066C39.4563 21.5183 39.5902 21.8047 39.7869 22.0294C39.9835 22.2542 40.2341 22.4073 40.5069 22.4693C40.7797 22.5313 41.0624 22.4995 41.3194 22.3778C41.5764 22.2562 41.796 22.0502 41.9505 21.7859C42.105 21.5216 42.1875 21.2109 42.1875 20.893C42.1875 20.4668 42.0393 20.058 41.7756 19.7566C41.5119 19.4552 41.1542 19.2859 40.7812 19.2859ZM43.5938 16.0716C43.3156 16.0716 43.0437 16.1659 42.8125 16.3425C42.5812 16.5191 42.401 16.7701 42.2945 17.0637C42.1881 17.3574 42.1603 17.6805 42.2145 17.9923C42.2688 18.304 42.4027 18.5904 42.5994 18.8152C42.796 19.0399 43.0466 19.193 43.3194 19.255C43.5922 19.317 43.8749 19.2852 44.1319 19.1636C44.3889 19.0419 44.6085 18.8359 44.763 18.5716C44.9175 18.3073 45 17.9966 45 17.6788C45 17.2525 44.8518 16.8437 44.5881 16.5423C44.3244 16.2409 43.9667 16.0716 43.5938 16.0716ZM37.9688 22.5002C37.6906 22.5002 37.4187 22.5944 37.1875 22.771C36.9562 22.9476 36.776 23.1986 36.6695 23.4923C36.5631 23.7859 36.5353 24.1091 36.5895 24.4208C36.6438 24.7326 36.7777 25.0189 36.9744 25.2437C37.171 25.4685 37.4216 25.6215 37.6944 25.6835C37.9672 25.7455 38.2499 25.7137 38.5069 25.5921C38.7639 25.4704 38.9835 25.2645 39.138 25.0002C39.2925 24.7359 39.375 24.4251 39.375 24.1073C39.375 23.681 39.2268 23.2723 38.9631 22.9709C38.6994 22.6695 38.3417 22.5002 37.9688 22.5002ZM35.1562 25.7144C34.8781 25.7144 34.6062 25.8087 34.375 25.9853C34.1437 26.1619 33.9635 26.4129 33.857 26.7065C33.7506 27.0002 33.7228 27.3233 33.777 27.6351C33.8313 27.9468 33.9652 28.2332 34.1619 28.458C34.3585 28.6827 34.6091 28.8358 34.8819 28.8978C35.1547 28.9598 35.4374 28.928 35.6944 28.8063C35.9514 28.6847 36.171 28.4787 36.3255 28.2144C36.48 27.9501 36.5625 27.6394 36.5625 27.3215C36.5625 26.8953 36.4143 26.4865 36.1506 26.1851C35.8869 25.8837 35.5292 25.7144 35.1562 25.7144ZM29.5312 32.1429C29.2531 32.1429 28.9812 32.2372 28.75 32.4138C28.5187 32.5904 28.3385 32.8414 28.232 33.1351C28.1256 33.4287 28.0978 33.7519 28.152 34.0636C28.2063 34.3754 28.3402 34.6617 28.5369 34.8865C28.7335 35.1113 28.9841 35.2643 29.2569 35.3263C29.5297 35.3883 29.8124 35.3565 30.0694 35.2349C30.3264 35.1132 30.546 34.9072 30.7005 34.643C30.855 34.3787 30.9375 34.0679 30.9375 33.7501C30.9375 33.3238 30.7893 32.9151 30.5256 32.6137C30.2619 32.3123 29.9042 32.1429 29.5312 32.1429ZM26.7188 35.3572C26.4406 35.3572 26.1687 35.4515 25.9375 35.6281C25.7062 35.8047 25.526 36.0557 25.4195 36.3493C25.3131 36.643 25.2853 36.9661 25.3395 37.2779C25.3938 37.5896 25.5277 37.876 25.7244 38.1008C25.921 38.3255 26.1716 38.4786 26.4444 38.5406C26.7172 38.6026 26.9999 38.5708 27.2569 38.4491C27.5139 38.3275 27.7335 38.1215 27.888 37.8572C28.0425 37.5929 28.125 37.2822 28.125 36.9643C28.125 36.5381 27.9768 36.1293 27.7131 35.8279C27.4494 35.5265 27.0917 35.3572 26.7188 35.3572ZM32.3438 28.9287C32.0656 28.9287 31.7937 29.0229 31.5625 29.1995C31.3312 29.3761 31.151 29.6271 31.0445 29.9208C30.9381 30.2145 30.9103 30.5376 30.9645 30.8494C31.0188 31.1611 31.1527 31.4475 31.3494 31.6722C31.546 31.897 31.7966 32.0501 32.0694 32.1121C32.3422 32.1741 32.6249 32.1422 32.8819 32.0206C33.1389 31.899 33.3585 31.693 33.513 31.4287C33.6675 31.1644 33.75 30.8537 33.75 30.5358C33.75 30.1096 33.6018 29.7008 33.3381 29.3994C33.0744 29.098 32.7167 28.9287 32.3438 28.9287ZM34.2466 6.99635L33.2534 5.86031C33.1228 5.71103 32.9678 5.59262 32.7972 5.51183C32.6265 5.43104 32.4436 5.38946 32.2589 5.38946C32.0742 5.38946 31.8913 5.43104 31.7207 5.51183C31.5501 5.59262 31.395 5.71103 31.2645 5.86031L30.7661 6.42883C28.9377 4.36923 26.4735 3.21463 23.9062 3.21457C22.2152 3.21457 20.6473 3.74693 19.2568 4.60574L18.3779 3.60128C16.3833 1.31112 13.6766 0.016475 10.8492 0.000304576C4.87705 -0.0499183 0 6.11846 0 12.9427V43.3929C0 43.8191 0.148158 44.2279 0.411881 44.5293C0.675604 44.8307 1.03329 45 1.40625 45H4.21875C4.59171 45 4.9494 44.8307 5.21312 44.5293C5.47684 44.2279 5.625 43.8191 5.625 43.3929V12.6966C5.625 9.66821 7.4707 6.8507 10.1074 6.47604C10.8886 6.35908 11.6829 6.44928 12.4287 6.73965C13.1744 7.03003 13.8517 7.51277 14.4079 8.15047L15.2868 9.15493C14.5283 10.74 14.0625 12.5319 14.0625 14.4645C14.0629 17.3984 15.0732 20.2144 16.875 22.3043L16.3775 22.8738C16.114 23.1752 15.966 23.5838 15.966 24.0099C15.966 24.4359 16.114 24.8445 16.3775 25.1459L17.3707 26.2819C17.5013 26.4312 17.6563 26.5496 17.827 26.6304C17.9976 26.7112 18.1805 26.7528 18.3652 26.7528C18.5499 26.7528 18.7328 26.7112 18.9034 26.6304C19.074 26.5496 19.2291 26.4312 19.3597 26.2819L34.2466 9.26944C34.3772 9.1202 34.4808 8.94301 34.5515 8.748C34.6222 8.55299 34.6586 8.34398 34.6586 8.13289C34.6586 7.92181 34.6222 7.7128 34.5515 7.51779C34.4808 7.32278 34.3772 7.14559 34.2466 6.99635Z" fill="black"/>
</svg>
