<svg width="70" height="70" viewBox="0 0 70 70" fill="none" xmlns="http://www.w3.org/2000/svg">
<path d="M35 5.83333C18.9292 5.83333 5.83337 18.9292 5.83337 35C5.83337 51.0708 18.9292 64.1667 35 64.1667C51.0709 64.1667 64.1667 51.0708 64.1667 35C64.1667 18.9292 51.0709 5.83333 35 5.83333ZM40.2209 43.75C41.0667 44.5958 41.0667 45.9958 40.2209 46.8417C39.7834 47.2792 39.2292 47.4833 38.675 47.4833C38.1209 47.4833 37.5667 47.2792 37.1292 46.8417L26.8334 36.5458C26.4266 36.1342 26.1984 35.5787 26.1984 35C26.1984 34.4212 26.4266 33.8658 26.8334 33.4542L37.1292 23.1583C37.975 22.3125 39.375 22.3125 40.2209 23.1583C41.0667 24.0042 41.0667 25.4042 40.2209 26.25L31.4709 35L40.2209 43.75Z" fill="white"/>
</svg>
