<svg width="70" height="70" viewBox="0 0 70 70" fill="none" xmlns="http://www.w3.org/2000/svg">
<path d="M35 5.83333C18.9291 5.83333 5.83331 18.9292 5.83331 35C5.83331 51.0708 18.9291 64.1667 35 64.1667C51.0708 64.1667 64.1666 51.0708 64.1666 35C64.1666 18.9292 51.0708 5.83333 35 5.83333ZM46.8416 40.2208C46.4041 40.6583 45.85 40.8625 45.2958 40.8625C44.7416 40.8625 44.1875 40.6583 43.75 40.2208L35 31.4708L26.25 40.2208C25.4041 41.0667 24.0041 41.0667 23.1583 40.2208C22.7515 39.8092 22.5233 39.2537 22.5233 38.675C22.5233 38.0962 22.7515 37.5408 23.1583 37.1292L33.4541 26.8333C34.3 25.9875 35.7 25.9875 36.5458 26.8333L46.8416 37.1292C47.6875 38.0042 47.6875 39.375 46.8416 40.2208Z" fill="white"/>
</svg>
