<?xml version="1.0" encoding="utf-8"?>
<svg viewBox="588.815 207.674 58.334 58.333" xmlns="http://www.w3.org/2000/svg" xmlns:bx="https://boxy-svg.com">
  <path d="M 617.982 207.674 C 601.911 207.674 588.815 220.77 588.815 236.841 C 588.815 252.912 601.911 266.007 617.982 266.007 C 634.053 266.007 647.149 252.912 647.149 236.841 C 647.149 220.77 634.053 207.674 617.982 207.674 Z M 629.824 242.062 C 629.386 242.499 628.832 242.703 628.278 242.703 C 627.724 242.703 627.17 242.499 626.732 242.062 L 617.982 233.312 L 609.232 242.062 C 608.386 242.907 606.986 242.907 606.14 242.062 C 605.734 241.65 605.505 241.094 605.505 240.516 C 605.505 239.937 605.734 239.382 606.14 238.97 L 616.436 228.674 C 617.282 227.828 618.682 227.828 619.528 228.674 L 629.824 238.97 C 630.67 239.845 630.67 241.216 629.824 242.062 Z" fill="rgba(255, 255, 255, 0.9)" style=""/>
  <path style="stroke: rgb(0, 0, 0);" d="M 215.919 289.085 H 216.924 A 1.991 1.991 0 0 1 218.915 291.076 V 305.075 A 2 2.009 0 0 1 216.915 307.084 H 216.906 A 1.991 1.991 0 0 1 214.915 305.093 V 290.089 A 1.004 1.004 0 0 1 215.919 289.085 Z" transform="matrix(0.707095, 0.707119, -0.713326, 0.700887, 671.882273, -126.548014)" bx:shape="rect 214.915 289.085 4 17.999 1.004 1.991 2.009 1.991 1@0f7a4c17"/>
  <rect style="stroke: rgb(0, 0, 0);" transform="matrix(-0.70712, 0.707094, -0.700887, -0.713327, 985.391311, 294.577427)" x="214.915" y="289.083" width="4" height="17.999" rx="2.009" ry="2.009"/>
</svg>