<svg xmlns="http://www.w3.org/2000/svg" xmlns:xlink="http://www.w3.org/1999/xlink" viewBox="0 0 56 70" version="1.1" x="0px" y="0px"><title>007 - Call </title><desc>Created with Sketch.</desc><g stroke="none" stroke-width="1" fill="none" fill-rule="evenodd"><g transform="translate(-1.000000, 0.000000)" fill="green" fill-rule="nonzero"><path d="M29,8.8817842e-16 C38.9289899,0.00107242373 48.1148494,5.2603484 53.1423061,13.8224464 C58.1697627,22.3845443 58.2868366,32.9687917 53.45,41.64 L45.28,36.19 C43.7370542,35.1737362 41.6728838,35.5083491 40.53,36.96 L37,41.51 C36.5430957,42.1077149 35.7160694,42.2782357 35.06,41.91 L34.38,41.54 C32.15,40.33 29.38,38.81 23.78,33.22 C18.18,27.63 16.67,24.85 15.46,22.62 L15.09,21.94 C14.7217643,21.2839306 14.8922851,20.4569043 15.49,20 L20.04,16.47 C21.4925346,15.3276368 21.8272668,13.262731 20.81,11.72 L15.36,3.55 C19.5270731,1.21671549 24.2241565,-0.00576588229 29,8.8817842e-16 Z M29,56 C13.5431092,55.9829154 1.01708463,43.4568908 1,28 C0.997684757,25.862267 1.24264593,23.7314403 1.73,21.65 C4.21,27.05 8.65,33.45 16.1,40.9 C23.55,48.35 29.95,52.79 35.35,55.27 C33.2685597,55.7573541 31.137733,56.0023152 29,56 Z M56.78,48.01 L53.73,53.09 C53.0581058,54.2447248 51.9649169,55.0941863 50.68,55.46 C47.6127491,56.238466 44.3943707,56.1936225 41.35,55.33 C40.3370852,55.0709071 39.3389551,54.7571137 38.36,54.39 C32.79,52.28 25.88,47.85 17.51,39.48 C9.14,31.11 4.71,24.21 2.61,18.64 C2.24288627,17.6610449 1.92909286,16.6629148 1.67,15.65 C0.806377475,12.6056293 0.761534046,9.38725086 1.54,6.32 C1.90581367,5.03508307 2.7552752,3.94189418 3.91,3.27 L8.99,0.22 C9.22411778,0.0747293482 9.49447801,-0.00152610248 9.77,7.21644966e-16 C10.2832452,-0.000478581757 10.7630887,0.254438289 11.05,0.68 L12.55,2.93 L13.66,4.6 L15.45,7.29 L19.15,12.83 C19.5884748,13.500842 19.4407899,14.3956386 18.81,14.89 L14.26,18.42 C12.881356,19.4852522 12.4900745,21.3991291 13.34,22.92 L13.7,23.57 C14.98,25.92 16.57,28.83 22.37,34.63 C28.17,40.43 31.08,42.02 33.43,43.3 L34.08,43.66 C35.6026145,44.5118188 37.519786,44.1156033 38.58,42.73 L42.11,38.19 C42.6043614,37.5592101 43.499158,37.4115252 44.17,37.85 L52.4,43.34 L54.07,44.45 L56.32,45.95 C56.9982609,46.404046 57.2006859,47.3105581 56.78,48.01 Z"/></g></g></svg>