<!DOCTYPE svg PUBLIC "-//W3C//DTD SVG 1.1//EN" "http://www.w3.org/Graphics/SVG/1.1/DTD/svg11.dtd">
<!-- Uploaded to: SVG Repo, www.svgrepo.com, Transformed by: SVG Repo Mixer Tools -->
<svg fill="#000000" width="800px" height="800px" viewBox="-2.4 -2.4 34.80 34.80" xmlns="http://www.w3.org/2000/svg" stroke="#000000" stroke-width="0.6">
<g id="SVGRepo_bgCarrier" stroke-width="0"/>
<g id="SVGRepo_tracerCarrier" stroke-linecap="round" stroke-linejoin="round"/>
<g id="SVGRepo_iconCarrier">
<path d="M15 6c-1.1 0-2 .9-2 2s.9 2 2 2 2-.9 2-2-.9-2-2-2zm0 1c.563 0 1 .437 1 1s-.437 1-1 1-1-.437-1-1 .437-1 1-1zm0-7C6.722 0 0 6.722 0 15c0 8.278 6.722 15 15 15 8.278 0 15-6.722 15-15 0-8.278-6.722-15-15-15zm0 1c7.738 0 14 6.262 14 14s-6.262 14-14 14S1 22.738 1 15 7.262 1 15 1zm0 10c-1.1 0-2 .9-2 2v9c0 1.1.9 2 2 2s2-.9 2-2v-9c0-1.1-.9-2-2-2zm0 1c.563 0 1 .437 1 1v9c0 .563-.437 1-1 1s-1-.437-1-1v-9c0-.563.437-1 1-1z"/>
</g>
</svg>