<svg width="72" height="72" viewBox="0 0 72 72" fill="none" xmlns="http://www.w3.org/2000/svg">
<path d="M7.74002 57.033L7.68002 57.093C6.87002 55.323 6.36002 53.313 6.15002 51.093C6.36002 53.283 6.93002 55.263 7.74002 57.033ZM27.003 31.143C28.8967 31.143 30.7128 30.3908 32.0518 29.0517C33.3908 27.7127 34.143 25.8966 34.143 24.003C34.143 22.1094 33.3908 20.2933 32.0518 18.9543C30.7128 17.6152 28.8967 16.863 27.003 16.863C25.1094 16.863 23.2933 17.6152 21.9543 18.9543C20.6153 20.2933 19.863 22.1094 19.863 24.003C19.863 25.8966 20.6153 27.7127 21.9543 29.0517C23.2933 30.3908 25.1094 31.143 27.003 31.143Z" fill="white"/>
<path d="M48.57 6H23.43C12.51 6 6 12.51 6 23.43V48.57C6 51.84 6.57 54.69 7.68 57.09C10.26 62.79 15.78 66 23.43 66H48.57C59.49 66 66 59.49 66 48.57V23.43C66 12.51 59.49 6 48.57 6ZM61.11 37.5C58.77 35.49 54.99 35.49 52.65 37.5L40.17 48.21C37.83 50.22 34.05 50.22 31.71 48.21L30.69 47.37C28.56 45.51 25.17 45.33 22.77 46.95L11.55 54.48C10.89 52.8 10.5 50.85 10.5 48.57V23.43C10.5 14.97 14.97 10.5 23.43 10.5H48.57C57.03 10.5 61.5 14.97 61.5 23.43V37.83L61.11 37.5Z" fill="white"/>
</svg>
