<?xml version="1.0" encoding="utf-8"?>
<svg viewBox="548.079 145.916 100 100" xmlns="http://www.w3.org/2000/svg">
  <path fill="orange" d="M 42.342 88.795 L 80 88.795 L 80 96.288 L 42.342 96.288 L 42.342 88.795 Z M 42.342 83.01 L 100 83.01 L 100 75.517 L 42.342 75.517 L 42.342 83.01 Z M 80 53.797 L 42.342 53.797 L 42.342 61.291 L 80 61.291 L 80 53.797 Z M 80 18.799 L 42.342 18.799 L 42.342 26.293 L 80 26.293 L 80 18.799 Z M 42.342 48.013 L 100 48.013 L 100 40.519 L 42.342 40.519 L 42.342 48.013 Z M 42.342 5.521 L 42.342 13.015 L 100 13.015 L 100 5.521 L 42.342 5.521 Z M 18.929 44.924 C 18.558 45.566 19.02 46.402 19.783 46.402 C 20.538 46.402 21.045 45.589 20.62 44.882 C 20.166 44.215 19.281 44.314 18.929 44.924 Z M 9.638 44.924 C 9.267 45.566 9.73 46.402 10.492 46.402 C 11.247 46.402 11.755 45.589 11.329 44.882 C 10.875 44.215 9.99 44.314 9.638 44.924 Z M 11.329 54.18 C 10.875 53.511 9.99 53.611 9.638 54.221 C 9.267 54.864 9.73 55.7 10.492 55.7 C 11.246 55.699 11.754 54.886 11.329 54.18 Z M 9.454 49.79 L 14.753 44.49 L 9.454 49.79 Z M 14.73 57.55 L 13.646 57.55 C 13.656 57.534 13.667 57.521 13.676 57.504 C 14.047 56.861 13.584 56.025 12.822 56.025 C 12.067 56.025 11.559 56.838 11.985 57.545 C 11.986 57.547 11.987 57.548 11.988 57.55 L 9 57.55 C 9.19 57.254 9.224 56.856 9.002 56.487 C 8.614 55.915 7.91 55.907 7.494 56.299 L 7.494 53.09 C 7.665 53.253 7.895 53.359 8.164 53.359 C 8.919 53.359 9.427 52.546 9.001 51.839 C 8.613 51.268 7.909 51.259 7.493 51.651 L 7.493 48.442 C 7.664 48.605 7.894 48.711 8.163 48.711 C 8.918 48.711 9.426 47.898 9 47.191 C 8.612 46.619 7.908 46.61 7.492 47.003 L 7.492 43.794 C 7.663 43.957 7.893 44.063 8.162 44.063 C 8.917 44.063 9.425 43.25 8.999 42.543 C 9.001 42.541 9 42.54 9 42.539 L 11.991 42.539 C 11.981 42.554 11.97 42.568 11.962 42.583 C 11.591 43.226 12.053 44.062 12.815 44.062 C 13.57 44.062 14.077 43.249 13.652 42.542 C 13.651 42.541 13.65 42.54 13.649 42.539 L 16.634 42.539 C 16.624 42.554 16.613 42.568 16.604 42.583 C 16.233 43.226 16.695 44.062 17.458 44.062 C 18.213 44.062 18.72 43.249 18.295 42.542 C 18.294 42.541 18.293 42.54 18.292 42.539 L 21.281 42.539 C 21.271 42.554 21.26 42.568 21.251 42.583 C 20.88 43.226 21.342 44.062 22.105 44.062 C 22.249 44.062 22.384 44.032 22.505 43.979 L 22.505 45.494 L 30 38 L 30 35.045 L 0 35.045 L 0 65.043 L 30 65.043 L 30 53.564 L 20.373 63.191 L 14.73 57.55 Z M 18.929 9.879 C 18.558 10.522 19.02 11.358 19.783 11.358 C 20.538 11.358 21.045 10.545 20.62 9.838 C 20.166 9.169 19.281 9.269 18.929 9.879 Z M 9.638 9.879 C 9.267 10.522 9.73 11.358 10.492 11.358 C 11.247 11.358 11.755 10.545 11.329 9.838 C 10.875 9.169 9.99 9.269 9.638 9.879 Z M 11.329 19.134 C 10.875 18.466 9.99 18.565 9.638 19.175 C 9.267 19.818 9.73 20.654 10.492 20.654 C 11.246 20.654 11.754 19.841 11.329 19.134 Z M 20.373 15.065 L 33.325 2.114 L 20.373 15.065 Z M 14.73 22.504 L 13.646 22.504 C 13.656 22.489 13.667 22.475 13.676 22.459 C 14.047 21.816 13.584 20.981 12.822 20.981 C 12.067 20.981 11.559 21.794 11.985 22.5 C 11.986 22.502 11.987 22.503 11.988 22.504 L 9 22.504 C 9.19 22.208 9.224 21.811 9.002 21.441 C 8.614 20.869 7.91 20.861 7.494 21.253 L 7.494 18.044 C 7.665 18.207 7.895 18.313 8.164 18.313 C 8.919 18.313 9.427 17.5 9.001 16.794 C 8.613 16.222 7.909 16.213 7.493 16.606 L 7.493 13.397 C 7.664 13.561 7.894 13.667 8.163 13.667 C 8.918 13.667 9.426 12.854 9 12.147 C 8.612 11.575 7.908 11.567 7.492 11.959 L 7.492 8.748 C 7.663 8.912 7.893 9.017 8.162 9.017 C 8.917 9.017 9.425 8.204 8.999 7.497 C 9.001 7.496 9 7.495 9 7.494 L 11.991 7.494 C 11.981 7.509 11.97 7.523 11.962 7.538 C 11.591 8.181 12.053 9.017 12.815 9.017 C 13.57 9.017 14.077 8.204 13.652 7.497 C 13.651 7.496 13.65 7.495 13.649 7.494 L 16.634 7.494 C 16.624 7.509 16.613 7.523 16.604 7.538 C 16.233 8.181 16.695 9.017 17.458 9.017 C 18.213 9.017 18.72 8.204 18.295 7.497 C 18.294 7.496 18.293 7.495 18.292 7.494 L 21.281 7.494 C 21.271 7.509 21.26 7.523 21.251 7.538 C 20.88 8.181 21.342 9.017 22.105 9.017 C 22.249 9.017 22.384 8.987 22.505 8.934 L 22.505 10.449 L 30 2.955 L 30 0 L 0 0 L 0 29.998 L 30 29.998 L 30 18.52 L 20.373 28.146 L 14.73 22.504 Z M 18.929 79.881 C 18.558 80.524 19.02 81.36 19.783 81.36 C 20.538 81.36 21.045 80.547 20.62 79.84 C 20.166 79.172 19.281 79.271 18.929 79.881 Z M 9.638 79.881 C 9.267 80.524 9.73 81.36 10.492 81.36 C 11.247 81.36 11.755 80.547 11.329 79.84 C 10.875 79.172 9.99 79.271 9.638 79.881 Z M 11.329 89.137 C 10.875 88.468 9.99 88.568 9.638 89.177 C 9.267 89.82 9.73 90.656 10.492 90.656 C 11.246 90.656 11.754 89.843 11.329 89.137 Z M 9.454 84.747 L 14.753 79.447 L 9.454 84.747 Z M 14.73 92.506 L 13.646 92.506 C 13.656 92.491 13.667 92.478 13.676 92.461 C 14.047 91.818 13.584 90.982 12.822 90.982 C 12.067 90.982 11.559 91.795 11.985 92.502 C 11.986 92.504 11.987 92.505 11.988 92.506 L 9 92.506 C 9.19 92.21 9.224 91.813 9.002 91.443 C 8.614 90.871 7.91 90.863 7.494 91.255 L 7.494 88.046 C 7.665 88.209 7.895 88.315 8.164 88.315 C 8.919 88.315 9.427 87.502 9.001 86.795 C 8.613 86.223 7.909 86.215 7.493 86.607 L 7.493 83.397 C 7.664 83.56 7.894 83.667 8.163 83.667 C 8.918 83.667 9.426 82.854 9 82.146 C 8.612 81.575 7.908 81.566 7.492 81.958 L 7.492 78.75 C 7.663 78.913 7.893 79.019 8.162 79.019 C 8.917 79.019 9.425 78.206 8.999 77.499 C 9.001 77.498 9 77.497 9 77.496 L 11.991 77.496 C 11.981 77.511 11.97 77.524 11.962 77.54 C 11.591 78.183 12.053 79.019 12.815 79.019 C 13.57 79.019 14.077 78.206 13.652 77.499 C 13.651 77.498 13.65 77.497 13.649 77.496 L 16.634 77.496 C 16.624 77.511 16.613 77.524 16.604 77.54 C 16.233 78.183 16.695 79.019 17.458 79.019 C 18.213 79.019 18.72 78.206 18.295 77.499 C 18.294 77.498 18.293 77.497 18.292 77.496 L 21.281 77.496 C 21.271 77.511 21.26 77.524 21.251 77.54 C 20.88 78.183 21.342 79.019 22.105 79.019 C 22.249 79.019 22.384 78.989 22.505 78.936 L 22.505 80.451 L 30 72.957 L 30 70.002 L 0 70.002 L 0 100 L 30 100 L 30 88.521 L 20.373 98.148 L 14.73 92.506 Z" transform="matrix(1, 0, 0, 1, 548.078991, 145.916067)"/>
</svg>