<svg xmlns="http://www.w3.org/2000/svg" xmlns:xlink="http://www.w3.org/1999/xlink" version="1.1" x="0px" y="0px" viewBox="0 0 100 125" style="enable-background:new 0 0 100 100;" xml:space="preserve"><g><path fill="orange" d="M42.342,88.795H80v7.493H42.342V88.795z M42.342,83.01H100v-7.493H42.342V83.01z M80,53.797H42.342v7.494H80V53.797z    M80,18.799H42.342v7.494H80V18.799z M42.342,48.013H100v-7.494H42.342V48.013z M42.342,5.521v7.494H100V5.521H42.342z    M18.929,44.924c-0.371,0.642,0.091,1.478,0.854,1.478c0.755,0,1.262-0.813,0.837-1.52C20.166,44.215,19.281,44.314,18.929,44.924z    M9.638,44.924c-0.371,0.642,0.092,1.478,0.854,1.478c0.755,0,1.263-0.813,0.837-1.52C10.875,44.215,9.99,44.314,9.638,44.924z    M11.329,54.18c-0.454-0.669-1.339-0.569-1.691,0.041c-0.371,0.643,0.092,1.479,0.854,1.479   C11.246,55.699,11.754,54.886,11.329,54.18z M20.373,50.11l-5.62-5.62L9.454,49.79l10.919,10.918l18.251-18.25l-5.299-5.299   L20.373,50.11z M14.73,57.55h-1.084c0.01-0.016,0.021-0.029,0.03-0.046c0.371-0.643-0.092-1.479-0.854-1.479   c-0.755,0-1.263,0.813-0.837,1.52c0.001,0.002,0.002,0.003,0.003,0.005H9c0.19-0.296,0.224-0.694,0.002-1.063   c-0.388-0.572-1.092-0.58-1.508-0.188v-3.209c0.171,0.163,0.401,0.269,0.67,0.269c0.755,0,1.263-0.813,0.837-1.52   c-0.388-0.571-1.092-0.58-1.508-0.188v-3.209c0.171,0.163,0.401,0.269,0.67,0.269c0.755,0,1.263-0.813,0.837-1.52   c-0.388-0.572-1.092-0.581-1.508-0.188v-3.209c0.171,0.163,0.401,0.269,0.67,0.269c0.755,0,1.263-0.813,0.837-1.52   C9.001,42.541,9,42.54,9,42.539h2.991c-0.01,0.015-0.021,0.029-0.029,0.044c-0.371,0.643,0.091,1.479,0.853,1.479   c0.755,0,1.262-0.813,0.837-1.52c-0.001-0.001-0.002-0.002-0.003-0.003h2.985c-0.01,0.015-0.021,0.029-0.03,0.044   c-0.371,0.643,0.091,1.479,0.854,1.479c0.755,0,1.262-0.813,0.837-1.52c-0.001-0.001-0.002-0.002-0.003-0.003h2.989   c-0.01,0.015-0.021,0.029-0.03,0.044c-0.371,0.643,0.091,1.479,0.854,1.479c0.144,0,0.279-0.03,0.4-0.083v1.515L30,38v-2.955H0   v29.998h30V53.564l-9.627,9.627L14.73,57.55z M18.929,9.879c-0.371,0.643,0.091,1.479,0.854,1.479c0.755,0,1.262-0.813,0.837-1.52   C20.166,9.169,19.281,9.269,18.929,9.879z M9.638,9.879c-0.371,0.643,0.092,1.479,0.854,1.479c0.755,0,1.263-0.813,0.837-1.52   C10.875,9.169,9.99,9.269,9.638,9.879z M11.329,19.134c-0.454-0.668-1.339-0.569-1.691,0.041c-0.371,0.643,0.092,1.479,0.854,1.479   C11.246,20.654,11.754,19.841,11.329,19.134z M20.373,15.065l-5.62-5.62l-5.299,5.3l10.919,10.918l18.251-18.25l-5.299-5.299   L20.373,15.065z M14.73,22.504h-1.084c0.01-0.015,0.021-0.029,0.03-0.045c0.371-0.643-0.092-1.478-0.854-1.478   c-0.755,0-1.263,0.813-0.837,1.519c0.001,0.002,0.002,0.003,0.003,0.004H9c0.19-0.296,0.224-0.693,0.002-1.063   c-0.388-0.572-1.092-0.58-1.508-0.188v-3.209c0.171,0.163,0.401,0.269,0.67,0.269c0.755,0,1.263-0.813,0.837-1.519   c-0.388-0.572-1.092-0.581-1.508-0.188v-3.209c0.171,0.164,0.401,0.27,0.67,0.27c0.755,0,1.263-0.813,0.837-1.52   c-0.388-0.572-1.092-0.58-1.508-0.188V8.748c0.171,0.164,0.401,0.269,0.67,0.269c0.755,0,1.263-0.813,0.837-1.52   C9.001,7.496,9,7.495,9,7.494h2.991c-0.01,0.015-0.021,0.029-0.029,0.044c-0.371,0.643,0.091,1.479,0.853,1.479   c0.755,0,1.262-0.813,0.837-1.52c-0.001-0.001-0.002-0.002-0.003-0.003h2.985c-0.01,0.015-0.021,0.029-0.03,0.044   c-0.371,0.643,0.091,1.479,0.854,1.479c0.755,0,1.262-0.813,0.837-1.52c-0.001-0.001-0.002-0.002-0.003-0.003h2.989   c-0.01,0.015-0.021,0.029-0.03,0.044c-0.371,0.643,0.091,1.479,0.854,1.479c0.144,0,0.279-0.03,0.4-0.083v1.515L30,2.955V0H0   v29.998h30V18.52l-9.627,9.626L14.73,22.504z M18.929,79.881c-0.371,0.643,0.091,1.479,0.854,1.479c0.755,0,1.262-0.813,0.837-1.52   C20.166,79.172,19.281,79.271,18.929,79.881z M9.638,79.881c-0.371,0.643,0.092,1.479,0.854,1.479c0.755,0,1.263-0.813,0.837-1.52   C10.875,79.172,9.99,79.271,9.638,79.881z M11.329,89.137c-0.454-0.669-1.339-0.569-1.691,0.04   c-0.371,0.643,0.092,1.479,0.854,1.479C11.246,90.656,11.754,89.843,11.329,89.137z M20.373,85.067l-5.62-5.62l-5.299,5.3   l10.919,10.918l18.251-18.25l-5.299-5.299L20.373,85.067z M14.73,92.506h-1.084c0.01-0.015,0.021-0.028,0.03-0.045   c0.371-0.643-0.092-1.479-0.854-1.479c-0.755,0-1.263,0.813-0.837,1.52c0.001,0.002,0.002,0.003,0.003,0.004H9   c0.19-0.296,0.224-0.693,0.002-1.063c-0.388-0.572-1.092-0.58-1.508-0.188v-3.209c0.171,0.163,0.401,0.269,0.67,0.269   c0.755,0,1.263-0.813,0.837-1.52c-0.388-0.572-1.092-0.58-1.508-0.188v-3.21c0.171,0.163,0.401,0.27,0.67,0.27   c0.755,0,1.263-0.813,0.837-1.521c-0.388-0.571-1.092-0.58-1.508-0.188V78.75c0.171,0.163,0.401,0.269,0.67,0.269   c0.755,0,1.263-0.813,0.837-1.52C9.001,77.498,9,77.497,9,77.496h2.991c-0.01,0.015-0.021,0.028-0.029,0.044   c-0.371,0.643,0.091,1.479,0.853,1.479c0.755,0,1.262-0.813,0.837-1.52c-0.001-0.001-0.002-0.002-0.003-0.003h2.985   c-0.01,0.015-0.021,0.028-0.03,0.044c-0.371,0.643,0.091,1.479,0.854,1.479c0.755,0,1.262-0.813,0.837-1.52   c-0.001-0.001-0.002-0.002-0.003-0.003h2.989c-0.01,0.015-0.021,0.028-0.03,0.044c-0.371,0.643,0.091,1.479,0.854,1.479   c0.144,0,0.279-0.03,0.4-0.083v1.515L30,72.957v-2.955H0V100h30V88.521l-9.627,9.627L14.73,92.506z"/></g></svg>