<svg xmlns="http://www.w3.org/2000/svg" xmlns:xlink="http://www.w3.org/1999/xlink" version="1.1" x="0px" y="0px" viewBox="0 0 303.936 296.44875" style="enable-background:new 0 0 303.936 237.159;" xml:space="preserve"><g><path d="M122.562,146.686c-0.098,0.131-0.204,0.256-0.307,0.383h0.602l-5.047,8.802h-14.833v0.534h14.526l-7.311,12.747h-7.216v0.8   h6.757l-6.757,11.781v4.285l8.774-16.066h39.213l-0.275,20.099h-47.712v1.335h47.694l-0.009,0.666h2.611l-0.009-0.666h50.625   l19.875,36.391h-50.474l-0.149,2.63h130.795l-94.879-83.72H122.562z M150.974,169.151h-38.785l6.961-12.747h31.998L150.974,169.151   z M151.155,155.87H119.44l4.808-8.802h27.027L151.155,155.87z M152.66,147.068h27.028l4.807,8.802H152.78L152.66,147.068z    M152.788,156.404h31.998l6.961,12.747h-38.785L152.788,156.404z M153.247,190.05l-0.275-20.099h39.213l10.977,20.099H153.247z    M227.366,227.775l-20.871-36.391h50.625l40.248,36.391H227.366z M205.729,190.05l-11.527-20.099h39.213l22.228,20.099H205.729z    M193.743,169.151l-7.311-12.747h32l14.098,12.747H193.743z M186.126,155.87l-5.047-8.802h27.027l9.734,8.802H186.126z"/><path d="M102.713,227.775c-0.148,0.898-0.347,1.779-0.62,2.63h15.317l-0.148-2.63H102.713z"/><path d="M6.567,227.775l30.317-27.412v-2.505L0,230.405h37.769c-0.273-0.851-0.473-1.731-0.62-2.63H6.567z"/><path d="M42.885,224.796c0,6.83,5.537,12.363,12.363,12.363c6.828,0,12.365-5.533,12.365-12.363v-82.513   c-14.018-0.182-21.825-1.972-24.728-2.808v2.049l-6.65-1.182c0.209-0.797,0.303-1.638,0.252-2.505   c-0.391-6.651-0.567-12.709-0.567-18.222c-0.033-24.218,3.496-37.82,6.965-44.92v33.16v18.939v3.693l7.836-50.397h0.042V50.596   c-0.096-0.002-0.188-0.005-0.292-0.005c-1.777-0.004-4.891,0.35-8.438,2.141c-5.379,2.665-11.178,8.5-15.236,18.838   c-4.106,10.38-6.863,25.387-6.877,48.047c0,5.5,0.173,11.472,0.531,17.923l-6.064-1.077l-0.762-0.136   c-0.236-0.044-0.48-0.063-0.701-0.063c-1.914-0.002-3.592,1.367-3.938,3.305l-1.7,9.577l-4.184-0.743l-1.249,7.032l35.032,6.22   l6,1.065V224.796z M12.926,140.267l-0.001-0.001l1.766,0.314l6.589,1.17c1.295,2.713,4.064,4.557,7.215,4.557   c0.156,0,0.316-0.004,0.475-0.014c2.004-0.117,3.787-0.968,5.117-2.269l8.799,1.563v9.882l-6-1.065l-25.66-4.558L12.926,140.267z"/><rect x="55.763" y="50.675" width="28.334" height="29.418"/><path d="M89.097,80.093h0.041l7.839,50.415v-3.712v-18.939V74.74c0.592,1.216,1.189,2.61,1.779,4.237   c2.82,7.813,5.191,20.631,5.182,40.64c0,5.513-0.178,11.571-0.566,18.223c-0.256,4.411,3.111,8.194,7.521,8.452   c0.158,0.009,0.316,0.014,0.473,0.014c4.205,0,7.732-3.283,7.979-7.533c0.406-6.934,0.594-13.301,0.594-19.155   c-0.041-30.183-4.861-46.887-11.436-56.933c-3.283-4.985-7.127-8.183-10.678-9.955c-3.549-1.789-6.662-2.143-8.436-2.137   c-0.104,0-0.196,0.003-0.292,0.005V80.093z"/><path d="M96.977,224.796v-85.321c-2.901,0.836-10.708,2.627-24.728,2.809v82.513c0,6.83,5.537,12.363,12.363,12.363   C91.439,237.159,96.977,231.626,96.977,224.796z"/><circle cx="56.847" cy="86.634" r="2.875"/><circle cx="83.013" cy="86.634" r="2.875"/><path d="M111.672,219.604c-0.003,0.334,0.074,0.681,0.236,0.989c0.645,1.119,1.833,1.32,3.076,1.336   c0.586-0.001,1.235-0.064,1.937-0.174c0.586-0.092,1.206-0.216,1.869-0.377c1.114-0.272,2.334-0.643,3.635-1.098l-0.33-0.943   l-0.331-0.944h-0.002c-1.249,0.438-2.408,0.79-3.447,1.042c-0.541,0.133-1.038,0.231-1.507,0.311   c-0.702,0.119-1.326,0.184-1.823,0.184c-0.494,0.002-0.868-0.062-1.08-0.139c-0.217-0.082-0.217-0.128-0.224-0.123   c-0.002-0.012-0.009-0.012-0.012-0.063c-0.095-0.333,0.873-1.946,2.837-3.61c0.027-0.023,0.059-0.049,0.086-0.073   c1.48-1.299,3.457-2.746,5.773-4.204l0.356,6.318c2.386-0.89,5.029-2.059,7.767-3.488c5.672-2.957,10.311-6.297,12.476-8.681   c-0.525-0.566-0.854-1.316-0.854-2.149c0-1.749,1.418-3.167,3.166-3.167c1.749,0,3.167,1.418,3.167,3.167   c0,1.749-1.418,3.167-3.167,3.167c-0.174,0-0.341-0.024-0.507-0.051c-0.744,0.877-1.718,1.807-2.912,2.786   c-2.624,2.146-6.254,4.51-10.442,6.699c-3.026,1.582-5.952,2.862-8.575,3.808l0.937,16.591h43l1.816-32.174h3.35v-6.493H118.61   v6.493h3.35l0.276,4.901c-2.219,1.347-4.173,2.701-5.785,3.991c-0.449,0.358-0.879,0.713-1.271,1.06   C113.131,216.375,111.767,217.859,111.672,219.604z"/><path d="M73.731,44.674c9.635-1.64,17.177-9.4,18.489-19.143c-2.029-0.104-4.17-0.322-6.371-0.664   c-11.52-1.792-20.401-6.306-20.145-10.171c1.524,3.461,10.442,6.12,21.247,6.12c8.154,0,15.248-1.514,18.893-3.743   c1.663-1.018,2.609-2.184,2.609-3.424c0-3.958-9.627-7.167-21.502-7.167c-0.406,0-0.803,0.013-1.203,0.02   C81.684,2.483,76.098,0,69.93,0c-12.426,0-22.5,10.074-22.5,22.5c0,11.131,8.084,20.367,18.699,22.174   C67.365,44.885,68.634,45,69.93,45C71.227,45,72.495,44.885,73.731,44.674z"/></g></svg>