<svg xmlns="http://www.w3.org/2000/svg" viewBox="0 0 64 64"><g id="Layer_5" data-name="Layer 5"><path d="M61,18.38V8.24A5.25,5.25,0,0,0,55.76,3H25.14a5.24,5.24,0,0,0-4.83,3.23H15.18a1,1,0,0,0-1,1V8.31l-4,1.64c-.9.31-.57,1.66-.62,2.36H4a1,1,0,0,0,0,2H9.52c.05.7-.27,2.06.62,2.36l4,1.64V19.4a1,1,0,0,0,1,1h5.13a5.24,5.24,0,0,0,4.83,3.22h7.75c1.58.71,1.54,5.85-.07,6.41a1.16,1.16,0,0,0-.51.36A1,1,0,0,0,33.09,32h7.32l2.81,13.38H31.94a3.81,3.81,0,0,0-3.81,3.81v8A3.81,3.81,0,0,0,31.94,61H57.19A3.82,3.82,0,0,0,61,57.19v-8a3.82,3.82,0,0,0-3.94-3.81L52.48,23.62h3.28A5.25,5.25,0,0,0,61,18.38Zm-41.09,0H16.18V8.23h3.73ZM57,9a1,1,0,0,1,0,1.41L50.38,17A1,1,0,0,1,49,17a1,1,0,0,1,0-1.41L55.54,9A1,1,0,0,1,57,9ZM51.79,9a1,1,0,0,1,0,1.41L45.21,17a1,1,0,1,1-1.41-1.41L50.38,9A1,1,0,0,1,51.79,9ZM46.63,9a1,1,0,0,1,0,1.41L40.05,17a1,1,0,0,1-1.41-1.41L45.22,9A1,1,0,0,1,46.63,9ZM33.47,15.57,40.05,9a1,1,0,0,1,1.42,1.41L34.89,17A1,1,0,0,1,33.47,15.57ZM35.41,30a8,8,0,0,0,0-6.38h3.23L40,30ZM36.5,59h-2V54a1,1,0,0,1,2,0ZM41,59H39V54a1,1,0,0,1,2,0Zm4.5,0h-2V54a1,1,0,0,1,2,0ZM50,59H48V54a1,1,0,0,1,2,0Zm4.5,0h-2V54a1,1,0,0,1,2,0ZM55,45.38H45.26L40.69,23.62h9.75Z"/></g></svg>